<svg width="360" height="450" xmlns="http://www.w3.org/2000/svg">

 <g>
  <title>background</title>
  <rect fill="none" id="canvas_background" height="452" width="362" y="-1" x="-1"/>
 </g>
 <g>
  <title>Layer 1</title>
  <rect transform="matrix(0.9921,0,0,0.9921,0,0) " id="svg_3" height="1" width="1" y="0" x="0" class="anchor"/>
  <g id="svg_4" transform="matrix(0.9921,0,0,0.9921,357.156,0) ">
   <rect id="svg_5" height="1" width="1" y="0" x="0" class="anchor"/>
  </g>
  <g id="svg_97">
   <g id="svg_6" transform="matrix(0.9921,0,0,0.9921,948.46337439,277.56120594000004) ">
    <path id="svg_7" d="m-768.71992,-266.31438l5.714,0.58l0.017,0.009l0.114,0.011l6.283,1.227l0.039,0.023l0.124,0.02l6.632,2.104l0.013,0.009l0.026,0.005l6.558,2.326l0.037,0.028l0.068,0.014l6.771,3.024l0.036,0.031l0.053,0.013l6.846,3.648l0.034,0.032l0.042,0.012l6.635,4.07l0.025,0.047l0.082,0.027l6.564,4.844l0.019,0.037l0.052,0.019l6.339,5.281l0.005,0.01l0.012,0.004l5.493,4.719l0.032,0.07l0.076,0.032l4.498,4.653l0.024,0.058l0.051,0.024l3.508,4.159l0.045,0.121l0.076,0.041l3.077,4.722l0.024,0.082l0.063,0.068l3.283,6.409l0.02,0.082l0.041,0.051l3.405,8.384l0.009,0.042l0.015,0.02l3.827,10.494l0.016,0.09l0.024,0.035l3.122,11.336l0.007,0.054l0.011,0.017l2.841,12.39l0.014,0.119l0.012,0.022l1.599,12.245l0.013,0.185l0,12.531l-0.002,0.063l-0.562,12.252l-0.003,0.009l-0.009,0.123l-1.69,11.624l-0.038,0.069l-0.046,0.239l-4.791,11.907l-0.046,0.057l-0.021,0.083l-5.344,9.728l-0.086,0.05l-0.057,0.159l-7.234,8.748l-0.109,0.052l-0.052,0.113l-8.858,7.684l-0.146,0.055l-0.049,0.088l-9.357,5.699l-0.077,0.022l-0.059,0.051l-12.387,5.898l-0.087,0.019l-0.048,0.037l-14.292,5.178l-0.088,0.016l-0.035,0.023l-15.974,4.28l-0.216,0.028l-0.03,0.015l-16.891,1.474l-0.124,0.006l-0.001,0l-16.966,-0.006l0,0l-0.149,-0.008l-15.987,-1.764l-0.028,-0.014l-0.154,-0.02l-15.143,-3.884l-0.054,-0.035l-0.122,-0.025l-13.663,-5.714l-0.085,-0.07l-0.107,-0.031l-12.11,-7.684l-0.06,-0.109l-0.157,-0.064l-10.349,-10.208l-0.051,-0.122l-0.095,-0.049l-8.304,-11.541l-0.042,-0.129l-0.06,-0.037l-6.833,-13.083l-0.019,-0.079l-0.04,-0.049l-5.291,-13.149l-0.026,-0.134l-0.035,-0.053l-3.264,-13.078l-0.029,-0.228l-0.011,-0.024l-0.876,-13.018l-0.003,-0.095l0,-0.001l-0.034,-12.882l0,-0.004l0.008,-0.153l1.32,-12.469l0.009,-0.019l0.012,-0.114l2.735,-13.388l0.037,-0.06l0.03,-0.165l5.278,-13.74l0.038,-0.049l0.018,-0.078l6.823,-13.53l0.061,-0.066l0.024,-0.078l8.02,-12.119l0.073,-0.039l0.04,-0.11l8.16,-9.442l0.069,-0.032l0.031,-0.073l7.319,-6.972l0.14,-0.056l0.053,-0.101l6.401,-4.361l0.098,-0.03l0.028,-0.048l6.336,-3.503l0.099,-0.026l0.067,-0.054l5.774,-2.363l0.1,-0.02l0.045,-0.032l5.492,-1.648l0.154,-0.023l0.039,-0.022l5.28,-0.861l0.215,-0.018l0.003,-0.001l4.858,-0.047l0.013,0l0.032,0l4.85,0.12l4.288,0.066l0,0l0.008,0l8.94,0.211l0.483,0.21l0.225,0.093l0.003,0.006l0.006,0.003l0.295,0.725l-0.143,0.345l0.519,-0.858l0.139,-0.078l0.083,-0.175l2.043,-1.647l0.128,-0.045l0.04,-0.069l3.039,-1.707l0.503,-0.133l0.08,-0.037l3.866,-0.19l0.055,-0.001l0,-0.001l4.504,-0.049l0.002,0l0,0l5.138,-0.055l0.016,0l0.148,0.008zm-13.35,2.895l-2.858,1.386l-2.245,1.263l-1.303,0.789l-0.315,0.088l-0.603,-0.603l0.087,-0.312l0.024,-0.039l-0.634,0.263l-0.009,-0.001l-8.928,-0.071l-4.275,0.067l-4.834,0.119l-4.745,0.229l-5.093,0.936l-5.331,1.681l-5.62,2.361l-6.195,3.459l-6.246,4.255l-7.181,6.831l-8.063,9.298l-7.933,11.949l-6.765,13.368l-5.214,13.541l-2.719,13.186l-1.34,12.311l-0.033,12.759l0.803,12.857l3.16,12.89l5.205,13.021l6.746,12.952l8.185,11.375l10.165,10.028l11.897,7.529l13.466,5.613l14.951,3.814l15.81,1.737l16.83,-0.005l16.716,-1.467l15.804,-4.261l14.16,-5.194l12.258,-5.865l9.199,-5.603l8.703,-7.508l7.111,-8.522l5.256,-9.52l4.694,-11.667l1.656,-11.386l0.56,-12.148l0,-12.408l-1.617,-12.089l-2.907,-12.286l-3.185,-11.231l-3.885,-10.396l-3.452,-8.267l-3.26,-6.261l-3.014,-4.553l-3.431,-4.029l-4.423,-4.548l-5.428,-4.662l-6.291,-5.244l-6.444,-4.806l-6.509,-4.039l-6.727,-3.628l-6.646,-2.985l-6.472,-2.297l-6.505,-2.087l-6.113,-1.278l-5.55,-0.67l-5.058,-0.053l0,0l-4.481,-0.05l-3.566,0.084z" fill="rgb(0%, 0%, 0%)"/>
   </g>
   <g id="svg_8" transform="matrix(0.9921,0,0,0.9921,784.76687439,381.35966844) ">
    <path id="svg_9" d="m-763.55692,-265.74138l6.197,0.141l0.002,0.001l0.068,0.003l6.526,0.492l7.063,0.294l6.946,0.056l0,0l0.003,0l7.232,0.077l8.312,-0.153l6.731,-0.741l0.098,-0.005l0.606,0.251l0.251,0.605l-0.704,0.843l-6.708,1.222l-0.14,0.013l-0.01,0.004l-8.368,0.409l-0.049,0.001l-0.001,0l-7.249,0.077l-0.004,0l-0.001,0l-6.968,0.057l-0.012,0l-0.05,-0.001l-7.114,-0.267l-0.002,-0.001l-0.047,-0.002l-6.512,-0.49l-6.144,-0.139l-6.11,-0.011l0,0l-0.003,0l-5.404,-0.021l-4.65,0.097l-4.244,0.425l-0.002,0l-2.681,0.284l-2.521,1.585l-0.627,0.182l-0.827,-0.342l-0.342,-0.827l0.342,-0.827l0.135,-0.056l0.052,-0.096l2.726,-1.781l0.345,-0.104l0.157,-0.083l2.946,-0.39l0.009,-0.001l0.001,0l4.279,-0.554l0.117,-0.008l0.006,-0.003l4.713,-0.183l0.049,-0.001l0,0l5.421,-0.021l0.003,0l0,0l6.124,-0.011l0.003,0l0.031,0z" fill="rgb(0%, 0%, 0%)"/>
    <g id="svg_10" transform="matrix(1,0,0,1,0.125,-1.125) ">
     <path id="svg_11" d="m-789.27692,-262.27438l0.002,0.004l0.004,0.002l0.086,0.207l0.181,0.423l0.157,8.758l0.287,2.7l0.002,0.034l0.002,0.003l0.216,3.078l0.42,3.706l0,0.012l0.001,0.002l0.494,4.783l0.001,0.011l0,0.001l0.493,5.206l0.001,0.024l0.001,0.003l0.492,7.036l0.002,0.033l0,0.001l0.34,9.01l0,0.025l0,0l0.132,10.348l0,0.001l0,0l0.126,10.489l0,0.012l0,0.003l-0.026,8.658l-0.011,6.476l-0.006,4.223l0,3.66l0.002,4.647l0,4.565l0.142,5.613l0.215,4.988l0.001,0.039l0,0l0.006,4.998l0,0.001l0,0l0.001,4.787l0,4.577l0,0.001l-0.007,4.646l0,0l0,0.002l-0.017,4.224l0,0l0,0.002l-0.025,4.403l0.271,3.909l0.001,0.017l0.001,0.001l0.21,4.152l0.001,0.044l0,0.001l-0.004,3.679l0.415,3.324l0.003,0.049l0.002,0.004l0.216,3.337l0.427,2.557l0.002,0.026l0.002,0.002l0.366,2.656l0.347,1.889l0.473,1.413l0.016,0.1l0.013,0.011l0.251,1.248l0.404,0.633l0.064,0.218l0.047,0.037l0.144,0.555l0.027,0.212l0.002,0.004l0.006,0.556l0.009,0.34l0.019,0.485l0,0.01l0,0l0.018,0.632l0,0l0,0l0.011,0.372l0.666,-0.235l0.024,-0.004l0.003,-0.005l1.472,-0.487l0.001,0l1.733,-0.624l0.085,-0.015l0.032,-0.02l2.033,-0.496l0.002,0l2.448,-0.631l0.129,-0.017l0.023,-0.012l3.022,-0.352l0.051,-0.003l0.005,-0.002l3.369,-0.233l0.065,-0.002l0.002,-0.001l4.011,-0.061l0.013,0l0,0l4.435,-0.022l0.003,0l0,0l4.505,-0.014l0.002,0l0,0l4.999,-0.008l0.001,0l0,0l4.646,0l4.646,-0.005l0.001,0l4.012,-0.001l3.732,-0.002l7.885,0l0.142,0.008l1.275,0.141l0.711,0.009l0,0l0.006,0l0.483,0.009l0.342,0l0.608,0.253l0.282,0.117l0,0.001l0.001,0l0.369,0.892l-0.369,0.891l-0.001,0l0,0.001l-0.292,0.121l-0.598,0.249l-0.342,0.001l-0.481,0.008l-0.008,0l-0.001,0l-0.773,0.01l-0.017,0l-0.127,-0.006l-1.275,-0.128l-7.82,0l-3.732,-0.001l-4.012,-0.002l0,0l-0.001,0l-4.646,-0.004l-4.646,-0.001l0,0l-0.001,0l-4.999,-0.007l0,0l-0.002,0l-4.505,-0.014l0,0l-0.003,0l-4.435,-0.022l0,0l-0.012,0l-3.995,-0.061l-3.308,0.047l-2.9,0.337l-2.385,0.612l-0.02,0.003l-0.005,0.003l-1.986,0.475l-1.695,0.611l-0.025,0.004l-0.004,0.006l-1.47,0.494l-0.001,0l-0.867,0.315l-0.338,0.203l-0.221,0.173l-0.057,0.02l-0.068,0.164l-0.009,0.004l-0.005,0.009l-0.757,0.306l-0.757,-0.306l-0.004,-0.009l-0.01,-0.004l-0.1,-0.242l-0.218,-0.49l-0.01,-0.279l-0.001,-0.042l0.14,-0.36l0,-0.133l0,-0.001l0.001,-0.493l0,0l0.001,-0.03l0.016,-0.494l0,0l0.014,-0.489l0,0l0.019,-0.632l0,-0.001l0,-0.007l0.019,-0.488l0.009,-0.338l0.004,-0.446l-0.077,-0.319l-0.412,-0.65l-0.077,-0.263l-0.043,-0.036l-0.271,-1.356l-0.472,-1.421l-0.02,-0.12l-0.014,-0.011l-0.341,-1.968l-0.004,-0.039l-0.003,-0.006l-0.334,-2.667l-0.407,-2.586l-0.006,-0.077l-0.003,-0.007l-0.204,-3.353l-0.418,-3.349l-0.007,-0.105l0,0l-0.004,-3.711l-0.211,-4.124l-0.289,-3.929l-0.002,-0.059l0,0l-0.025,-4.435l0,-0.002l0,0l-0.017,-4.223l0,-0.003l0,0l-0.007,-4.646l0,-0.001l0,-4.577l0.001,-4.787l0,0l0,-0.001l0.006,-4.979l-0.206,-4.978l0,-0.016l0,-0.001l-0.14,-5.63l0,-0.023l0,-4.576l0.002,-4.647l0,-3.66l-0.005,-4.223l-0.011,-6.476l-0.027,-8.653l-0.155,-10.483l0,-0.001l0,0l-0.15,-10.336l-0.364,-8.985l-0.491,-7.016l-0.491,-5.192l0,-0.002l-0.491,-4.778l0,-0.001l-0.421,-3.72l-0.002,-0.045l-0.002,-0.004l-0.204,-3.083l-0.269,-2.727l-0.005,-0.08l0,-0.002l-0.124,-8.799l0,-0.014l0.267,-0.646l0.647,-0.268l0.64,0.262z" fill="rgb(0%, 0%, 0%)"/>
    </g>
    <g id="svg_12" transform="matrix(1,0,0,1,24.875,50) ">
     <path id="svg_13" d="m-785.44592,-271.94438l0.243,0l0.209,0l0.005,0l0.741,0.229l0.504,0.346l0.089,0.17l0.193,0.093l0.503,0.631l1.07,0.633l0.049,0.086l0.145,0.054l1.022,0.886l1.011,0.559l0,0.001l0.001,0l0.966,0.543l1.061,0.269l0.882,0l0,0l0.001,0l1.056,0.002l1.195,0l0.694,0l0.555,-0.384l0.082,-0.026l0.024,-0.041l0.946,-0.541l0.798,-0.532l0.032,-0.01l0.01,-0.017l0.558,-0.347l0.736,-0.212l0.021,0l0.483,0.007l0.624,0.001l0.001,0l0.224,0.019l0.853,0.142l0.619,0.354l0.156,0.068l1.056,1.143l1.521,1.105l0.053,0.106l0.132,0.056l1.364,1.419l1.38,0.873l1.325,0.755l0.976,0.325l0.757,0.07l0.784,0.004l0,0l0.006,0l0.916,0.01l0,0l0.033,0.001l0.568,0.019l0.219,-0.013l0.151,-0.118l0.497,-0.435l0.239,-0.243l0.112,-0.158l0.021,-0.068l0.1,-0.073l0.009,-0.026l0.006,-0.004l0.025,-0.06l0.066,-0.027l0.014,-0.033l0.196,-0.082l0.254,-0.186l0.112,-0.038l0.122,-0.078l0.123,-0.03l0.178,-0.021l0.028,-0.014l0.168,-0.017l0.132,-0.034l0.577,-0.241l0.681,-0.315l1.055,-0.602l0.091,-0.024l0.063,-0.053l0.954,-0.418l0.839,-0.645l0,0l0.781,-0.609l0.255,-0.088l0.244,-0.171l0.489,-0.147l0.35,-0.192l0.722,-0.187l0.031,0l0.353,0.007l0.001,0.001l0.02,0l0.255,0.009l0.175,0l0.76,-0.009l0.978,-0.02l0.017,0l0.001,0l1.266,-0.012l0.015,0l1.478,0l0.001,0l1.255,0.001l1.465,-0.299l0.026,-0.003l0.006,-0.003l1.238,-0.233l1.091,-0.271l0.071,-0.008l0.017,-0.011l0.995,-0.185l0.241,-0.023l0.147,0.009l0.484,0.056l0.035,0.018l0.175,0.027l0.454,0.145l0.063,0.086l0.269,0.097l0.166,0.14l0.015,0.033l0.037,0.015l0.24,0.578l-0.24,0.578l-0.037,0.015l-0.016,0.033l-0.164,0.138l-0.277,0.1l-0.063,0.087l-0.4,0.127l-0.384,0.163l-0.027,0.005l-0.013,0.011l-0.941,0.368l-0.015,0.003l-0.007,0.005l-1.091,0.415l-0.117,0.022l-0.046,0.03l-1.246,0.32l-0.036,0.005l-0.01,0.006l-1.604,0.371l-0.348,0.04l0,0l-1.408,0.001l-0.001,0l-1.478,0l-0.014,0l-1.268,-0.012l0,0l-0.016,0l-0.98,-0.02l-0.759,-0.009l-0.175,0l-0.238,0.009l-0.147,0.087l-0.149,0.041l-0.104,0.08l-0.371,0.137l-0.55,0.472l-0.03,0.011l-0.011,0.022l-0.974,0.783l-0.169,0.059l-0.183,0.154l-1.062,0.465l-1.055,0.586l-0.076,0.02l-0.051,0.044l-0.767,0.343l-0.057,0.013l-0.031,0.024l-0.698,0.267l-0.262,0.049l-0.07,0.039l-0.347,0.051l-0.228,0.017l-0.12,-0.006l-0.08,0.078l-0.039,0.016l-0.016,0.035l-0.546,0.479l-0.456,0.427l-0.318,0.125l-0.418,0.227l-0.693,0.098l-0.145,0.01l-0.007,0.004l-0.631,0.021l-0.036,0.001l0,0l-0.915,0.01l-0.006,0l0,0l-0.845,0.005l-0.009,0l-0.072,-0.002l-0.991,-0.051l-0.035,-0.016l-0.342,-0.055l-1.277,-0.426l-0.099,-0.073l-0.151,-0.04l-1.484,-0.85l-0.012,-0.02l-0.042,-0.013l-1.552,-0.992l-0.074,-0.138l-0.188,-0.08l-1.39,-1.468l-1.517,-1.14l-0.069,-0.138l-0.152,-0.069l-0.776,-0.908l-0.239,-0.04l-0.509,0l-0.096,0.002l-0.224,0.14l-0.819,0.547l-0.067,0.02l-0.019,0.033l-0.935,0.535l-0.86,0.595l-0.793,0.249l-1.126,0l-1.195,0.001l-1.056,0.001l-0.001,0l0,0l-1.056,0.001l-0.001,0l-0.332,-0.04l-1.419,-0.35l-0.121,-0.079l-0.218,-0.057l-1.133,-0.637l-0.001,-0.001l-0.001,0l-1.128,-0.645l-0.057,-0.098l-0.166,-0.063l-1.039,-0.918l-1.167,-0.736l-0.127,-0.231l-0.252,-0.131l-0.036,-0.05l-0.017,0.066l-0.523,0.929l-0.515,1.195l-0.523,1.328l-0.336,1.145l-0.039,0.055l-0.023,0.108l-0.472,1.055l-0.332,1.039l-0.08,0.283l0,0.092l-0.395,0.953l-0.952,0.394l-0.953,-0.394l-0.084,-0.203l-0.141,-0.079l-0.062,-0.107l-0.169,-0.07l-0.321,-0.775l0.321,-0.775l0.261,-0.108l0,-0.004l0.348,-1.138l0.029,-0.042l0.018,-0.084l0.452,-1.059l0.331,-1.128l0.026,-0.038l0.016,-0.081l0.574,-1.414l0.014,-0.017l0.006,-0.028l0.581,-1.269l0.032,-0.021l0.023,-0.084l0.491,-0.848l0.168,-0.563l0.354,-0.501l0.055,-0.12l0.298,-0.256l0.01,-0.02l0.116,-0.28l0.014,-0.006l0.007,-0.015l0.916,-0.367l0.036,0.014z" fill="rgb(0%, 0%, 0%)"/>
    </g>
    <g id="svg_14" transform="matrix(1,0,0,1,32.75,74.375) ">
     <path id="svg_15" d="m-725.82192,-270.90138l0.766,0.106l0.037,0.02l0.153,0.024l0.454,0.146l0.083,0.114l0.314,0.131l0.295,0.712l-0.295,0.713l-0.321,0.134l-0.083,0.113l-0.439,0.142l-0.166,0.026l-0.038,0.021l-0.638,0.088l-0.962,0.331l-1.384,0.533l-1.55,0.712l-0.035,0.008l-0.019,0.016l-1.884,0.789l-0.195,0.04l-0.074,0.045l-1.609,0.35l-0.327,0.036l-1.267,0l-0.017,0l-1.127,-0.012l0,0l-0.004,0l-0.846,-0.013l0,0l-0.001,0l-0.843,-0.014l-0.903,-0.011l-1.455,0l-0.759,0.014l-0.012,0l-0.001,0l-0.539,0.006l-0.834,0.375l-0.083,0.018l-0.043,0.032l-1.233,0.433l-1.561,0.633l-0.018,0.004l-0.009,0.007l-1.609,0.63l-0.084,0.016l-0.037,0.026l-1.609,0.49l-0.068,0.01l-0.023,0.015l-1.399,0.343l-0.051,0.006l-0.013,0.009l-1.262,0.261l-0.312,0.032l-0.033,0l-1.198,-0.026l0,0l-0.013,-0.001l-0.766,-0.024l-0.609,-0.012l-0.472,0l-0.485,0.004l-0.618,0.007l-0.826,0.025l-1.044,0.04l-0.023,0.001l-0.001,0l-1.194,0.029l-0.021,0l0,0.001l-1.548,0.018l-0.007,0l0,0l-1.619,0.012l-0.013,0l-0.551,-0.1l-1.638,-0.615l-0.064,-0.05l-0.1,-0.024l-1.768,-0.92l-0.069,-0.064l-0.078,-0.024l-1.479,-0.997l-0.049,-0.093l-0.133,-0.052l-1.613,-1.488l-0.072,-0.164l-0.134,-0.069l-0.521,-0.721l-0.386,0.208l-0.671,0.803l-0.078,0.036l-0.036,0.083l-1.386,1.289l-0.073,0.029l-0.028,0.056l-1.674,1.281l-0.207,0.071l-0.199,0.145l-1.679,0.562l-0.438,0.073l-0.004,0.001l-1.466,0.008l-1.251,0.029l-0.036,0.001l-0.24,-0.021l-1.138,-0.194l-0.185,-0.106l-0.343,-0.101l-0.991,-0.637l-0.029,-0.052l-0.085,-0.03l-0.63,-0.503l-0.087,-0.181l-0.17,-0.085l-0.021,-0.029l-0.39,0.531l-0.025,0.013l-0.013,0.035l-0.917,1.072l-0.904,1.221l-0.347,0.174l-0.12,0.171l-2.72,0.965l-0.36,0.063l-0.746,-0.309l-0.309,-0.746l0.309,-0.746l0.345,-0.143l0.087,-0.118l2.504,-0.782l0.863,-0.944l0.023,-0.01l0.011,-0.025l0.986,-0.969l0.589,-0.769l0.209,-0.313l-0.023,-0.056l-0.111,-0.546l0.406,-0.981l0.982,-0.407l0.981,0.407l0.115,0.277l0.15,0.093l0.303,0.618l0.297,0.363l0.46,0.349l0.711,0.456l0.735,0.15l1.126,0.027l1.236,0.006l1.268,-0.421l1.48,-1.088l1.318,-1.148l0.799,-0.91l0.262,-0.118l0.102,-0.171l0.482,-0.259l0.019,-0.05l0.17,-0.217l0.065,-0.174l0.128,-0.071l0.121,-0.154l0.363,-0.114l0.176,-0.097l0.09,-0.064l0.183,-0.056l0.447,-0.067l0.915,0.312l0.595,0.459l0.089,0.182l0.183,0.089l0.78,1.003l1.436,1.297l1.315,0.866l1.623,0.844l1.262,0.513l1.318,0.01l0,0l0.006,0l1.55,0.019l0,0l0.018,0l1.198,0.029l0.001,0l0.018,0.001l1.051,0.04l0.823,0.025l0.618,0.007l0.484,0.004l0.472,0l0.611,-0.012l0.762,-0.024l0.016,-0.001l0.001,0l1.038,-0.023l1.098,-0.261l0.002,0l1.364,-0.348l1.527,-0.465l1.55,-0.607l0.019,-0.004l0.008,-0.006l1.617,-0.61l0.06,-0.012l0.027,-0.019l1.208,-0.382l1.053,-0.449l0.584,-0.121l0.017,0l0.845,0.009l0,0l0.011,0l0.76,0.015l1.456,0l0.903,-0.012l0.84,-0.014l0.004,0l0,0l0.844,-0.012l0.006,0l0,0l1.126,-0.013l0.017,0l1.107,0l1.345,-0.292l1.783,-0.707l0.002,-0.001l1.614,-0.663l0.114,-0.023l0.05,-0.034l1.488,-0.422l0.134,-0.019l0.032,-0.018l1.135,-0.182l0.207,-0.017l0.173,0.012z" fill="rgb(0%, 0%, 0%)"/>
    </g>
    <g id="svg_16" transform="matrix(1,0,0,1,46.125,102.75) ">
     <path id="svg_17" d="m-786.95592,-269.93338l0.026,0.062l0.054,0.026l0.194,0.234l0.007,0.019l0.014,0.006l0.517,0.65l0.75,0.87l1.088,1.033l0.919,0.833l0.82,0.319l0.91,0.11l1.314,0l0.017,0l1.094,0.012l0.813,-0.177l1.099,-0.615l1.036,-0.917l0.079,-0.03l0.029,-0.057l0.851,-0.617l0.317,-0.103l0.228,-0.138l0.911,-0.186l0.284,-0.03l0.622,0l0.55,-0.009l0.025,0l0.979,0.405l0.001,0.003l0.003,0.002l0.806,0.813l0.064,0.154l0.111,0.06l0.941,1.413l1.192,1.218l0.05,0.122l0.093,0.048l0.868,1.2l0.854,0.629l0.479,0.256l0.74,0l0.001,0l1.126,0.001l0,0l0.013,0l0.909,0.008l1.233,-0.737l1.606,-1.064l0.114,-0.035l0.031,-0.051l1.56,-0.8l1.323,-0.726l0.147,-0.038l0.089,-0.065l0.773,-0.257l0.438,-0.072l0.619,0l0.306,-0.006l0.412,-0.028l0.221,-0.03l0.11,-0.008l0.008,-0.004l0.487,-0.028l0.013,-0.001l0,0l0.348,-0.018l0.057,-0.001l0.001,-0.001l0.492,-0.007l0.008,0l0,0l0.914,-0.01l0.015,0l0,0l0.422,0l0.927,-0.361l1.014,-0.537l0.966,-0.611l0.041,-0.012l0.012,-0.02l1.006,-0.583l0.114,-0.031l0.078,-0.062l0.576,-0.225l0.477,-0.091l0.068,0.001l0.213,0.012l0.208,0.095l0.525,0.186l0.05,0.08l0.075,0.035l0.096,0.24l0.226,0.362l0.028,0.125l0.022,0.192l0.008,0.019l0.05,0.767l0,0.006l0,0.001l0.024,0.376l0.09,0.159l0.081,0.011l0.369,0.025l0.489,-0.018l0.491,-0.25l0.42,-0.419l0.2,-0.083l0.366,-0.246l0.766,-0.209l0.339,-0.046l0.002,-0.001l0.477,-0.001l0.616,-0.017l0.037,-0.001l0.752,0.24l0.658,0.468l0.081,0.157l0.175,0.083l0.784,0.961l0.405,0.476l0.383,0.14l0.502,0.073l0.85,-0.031l0.057,-0.001l1.118,0l1.299,-0.393l1.755,-0.859l1.58,-0.971l0.072,-0.021l0.019,-0.031l1.781,-0.928l0.188,-0.046l0.097,-0.064l1.132,-0.292l0.322,-0.042l0.062,0.002l0.602,0.03l0.106,0l0.197,-0.025l0.002,0l0.298,-0.079l0.834,0.295l0.182,0.148l0.261,-0.01l0.028,0l0.001,-0.001l0.772,-0.016l0.026,0l0,0l1.214,-0.006l1.529,-0.255l1.428,-0.319l0.073,-0.008l0.017,-0.009l1.829,-0.308l0.254,-0.021l0.072,0.001l1.408,0.069l0.001,0.001l0.009,0l1.266,0.073l0.002,0.001l0.017,0l0.978,0.073l0.81,0.051l0.754,0.022l0.004,0.002l0.101,0.006l0.639,0.077l0.017,0.009l0.093,0.01l0.493,0.11l0.486,-0.012l0.014,0l0.001,0l0.984,-0.014l0.017,0l1.127,0l0.014,0l1.219,0.015l1.435,-0.27l1.756,-0.377l0.119,-0.013l0.016,-0.008l1.208,-0.103l0.076,-0.003l0.599,0.248l0.248,0.599l-0.535,0.788l-1.125,0.445l-0.041,0.008l-0.006,0.009l-1.716,0.597l-0.063,0.01l-0.024,0.016l-1.525,0.408l-0.297,0.04l-0.006,0.003l-1.337,0.016l-0.015,0l-1.127,0l-0.016,0l-0.986,-0.013l0,0l-0.012,0l-0.635,-0.016l-0.009,-0.004l-0.218,-0.024l-0.567,-0.125l-0.487,-0.05l-0.675,0.02l-0.816,0.052l-0.001,0l-0.965,0.072l-0.025,0.001l-0.001,0l-1.26,0.073l-0.015,0.001l-0.001,0l-1.283,0.063l-1.683,0.365l-1.429,0.363l-0.11,0.014l-0.026,0.014l-1.681,0.281l-0.263,0.022l-0.008,0l-1.338,-0.007l0,0l-0.024,0l-0.776,-0.016l0,0l-0.025,-0.001l-0.635,-0.024l-0.012,-0.005l-0.199,-0.018l-0.213,-0.039l-0.85,-0.499l-0.037,-0.104l-0.065,-0.035l-0.131,-0.201l-0.151,0.008l-0.811,0.299l-1.587,0.953l-1.547,1.069l-0.1,0.032l-0.029,0.048l-1.869,1.026l-0.179,0.046l-0.106,0.075l-1.608,0.492l-0.443,0.068l-1.337,0l-0.054,-0.001l-0.987,-0.036l-0.014,-0.007l-0.238,-0.025l-0.778,-0.17l-0.087,-0.054l-0.199,-0.044l-0.837,-0.39l-0.141,-0.223l-0.351,-0.17l-0.616,-0.784l-0.006,-0.017l-0.012,-0.006l-0.667,-0.883l-0.152,-0.128l-0.161,-0.005l-0.303,-0.001l-0.28,0.077l-0.322,0.322l-0.2,0.083l-0.073,0.126l-0.897,0.51l-0.354,0.094l-0.128,0.069l-0.833,0.109l-0.083,0.005l-0.008,0.004l-0.44,0.029l-0.356,0.051l-0.092,0.007l-0.009,0.004l-0.345,0.026l-0.115,0.004l-0.653,-0.154l-0.149,-0.074l-0.038,-0.061l-0.135,-0.043l-0.532,-0.681l-0.181,-0.476l-0.183,-0.423l-0.584,0.469l-0.129,0.046l-0.041,0.073l-1.103,0.658l-0.136,0.038l-0.096,0.076l-1.257,0.489l-0.555,0.106l0,0l-0.002,0l-0.704,-0.001l0,0l-0.014,0l-0.916,-0.01l0,0l-0.006,0l-0.494,-0.007l-0.001,0l-0.053,-0.002l-0.354,-0.018l-0.001,0l-0.004,-0.001l-0.496,-0.028l-0.008,-0.004l-0.099,-0.007l-0.23,-0.031l-0.411,-0.028l-0.305,-0.006l-0.359,0l-0.416,0.165l-1.21,0.739l-0.027,0.008l-0.008,0.012l-1.461,0.846l-1.524,1.113l-0.076,0.024l-0.023,0.042l-1.605,0.995l-0.768,0.221l-0.028,0.012l-1.337,0.011l-0.013,0l0,0l-1.126,0.001l-0.001,0l-1.127,0l-0.73,-0.185l-0.923,-0.498l-0.045,-0.076l-0.149,-0.05l-1.123,-0.858l-0.118,-0.239l-0.215,-0.114l-0.902,-1.333l-1.169,-1.275l-0.067,-0.17l-0.107,-0.061l-0.895,-1.473l-0.261,-0.307l-0.373,0l-0.461,0.119l-0.537,0.416l-1.033,1.026l-0.174,0.072l-0.067,0.121l-1.375,0.883l-0.272,0.081l-0.178,0.116l-1.181,0.3l-0.363,0.046l-0.007,0.003l-1.266,0.014l-0.018,0l-1.408,0l-0.176,-0.01l-1.204,-0.138l-0.071,-0.037l-0.307,-0.058l-1.278,-0.496l-0.313,-0.249l-0.193,-0.079l-1.109,-1.074l-0.013,-0.032l-0.031,-0.013l-1.096,-1.155l-0.046,-0.115l-0.085,-0.044l-0.01,-0.013l0,0.003l-0.935,4.471l0.041,0.099l-0.372,0.898l-0.898,0.372l-0.898,-0.372l-0.372,-0.898l0.041,-0.099l0.089,-0.216l1.242,-4.748l0.001,-0.001l0.294,-1.107l0.002,-0.001l0.002,-0.009l0.265,-0.93l-0.116,-0.281l0.354,-0.856l0.146,-0.06l0.002,-0.003l0.11,-0.046l0.082,-0.13l0.165,-0.078l0.562,-0.127l0.92,0.381z" fill="rgb(0%, 0%, 0%)"/>
    </g>
    <g id="svg_18" transform="matrix(1,0,0,1,151.25,97.375) ">
     <path id="svg_19" d="m-781.91992,-263.30638l0.496,0.018l0.043,0.02l0.416,0.094l1.002,0.476l0.008,0.013l0.033,0.009l0.986,0.525l0.9,0.332l0.507,0.172l0.742,0.023l0.064,0.028l0.5,0.144l0.226,0.142l0.545,0.016l0,0l0.629,0.018l0.912,0.021l0,0l0.024,0.001l0.845,0.04l0,0l0.002,0l1.406,0.073l0.004,0.002l0.054,0.003l0.976,0.114l0.012,0.013l0.162,0.028l0.629,0.224l0.38,0.543l-0.384,0.545l-0.619,0.22l-0.172,0.03l-0.012,0.013l-0.967,0.114l-0.061,0.003l-0.004,0.002l-1.402,0.072l-0.006,0.001l0,0l-0.841,0.04l-0.027,0.001l-0.001,0l-0.912,0.021l-0.628,0.018l-0.001,0l0,0l-0.842,0.025l-0.034,0.001l-0.509,-0.124l-0.243,-0.126l-0.619,0.019l-0.037,0l-0.292,-0.037l-0.719,-0.187l-0.023,-0.015l-0.057,-0.01l-0.997,-0.344l-0.063,-0.047l-0.101,-0.026l-1.063,-0.566l0,0l-0.839,-0.44l-0.274,-0.069l-0.417,-0.048l-0.075,-0.039l-0.18,-0.042l-0.12,0.06l-0.531,0.367l-0.385,0.121l-0.126,0.06l-0.626,0.046l-0.033,0.001l-0.002,0.001l-0.84,0.037l-0.048,0.001l-0.001,0l-1.055,0.003l-0.004,0l-3.238,0l-0.785,-0.325l-0.325,-0.785l0.325,-0.785l0.785,-0.325l3.238,0l0.003,0l1.057,0.003l0,0l0.045,0.001l0.846,0.037l0.001,0.001l0.027,0.001l0.379,0.028l0.425,-0.185l0.085,-0.017l0.014,-0.02l0.291,-0.091l0.07,-0.035l0.222,-0.053l0.071,-0.039l0.067,-0.009l0.046,-0.014l0.034,-0.016l0.273,-0.064l0.075,-0.039l0.48,-0.056l0.136,-0.008l0.042,0.001z" fill="rgb(0%, 0%, 0%)"/>
    </g>
    <g id="svg_20" transform="matrix(1,0,0,1,201.375,99.125) ">
     <path id="svg_21" d="m-774.41792,-268.41638l0.928,0.515l0.912,0.335l0.014,0.01l0.023,0.005l1.03,0.419l1.286,0.298l1.157,0.234l1.322,-0.004l0.004,0l1.268,0l0.068,0.002l1.552,0.069l0.003,0.001l0.058,0.003l1.625,0.141l0.042,0.021l0.266,0.039l1.573,0.479l2.068,0.475l0,0.001l2.113,0.486l0.003,0.002l0.009,0.001l2.097,0.515l1.808,0.055l0.006,0.002l0.13,0.008l2.155,0.258l1.938,-0.017l0.001,0l0,0l1.971,-0.016l0.005,0l0,-0.001l1.918,-0.011l1.745,-0.433l1.499,-0.596l0.192,-0.038l0.071,-0.044l1.55,-0.344l1.219,-0.385l1.201,-0.467l0.611,-0.117l1.758,0l0.693,-0.12l0.292,-0.026l0,0l0.628,-0.001l0.372,-0.004l0.372,-0.054l0.25,-0.018l0.161,0l0.261,-0.089l0.813,0.276l0.056,0.084l0.074,0.03l0.061,0.149l0.15,0.062l0.025,0.059l0.063,0.036l0.39,1.059l-0.39,1.06l-0.063,0.036l-0.025,0.059l-0.304,0.126l-0.587,0.331l-0.127,0.021l-0.242,0.02l-0.035,0.014l-0.165,0l-0.37,0.052l-0.239,0.017l-0.015,0l-0.487,-0.004l-0.494,-0.001l-0.705,0.113l-0.27,0.022l-1.591,0l-0.967,0.376l-0.078,0.015l-0.034,0.025l-1.326,0.419l-0.126,0.02l-0.039,0.024l-1.495,0.319l-1.489,0.574l-0.163,0.03l-0.062,0.039l-2.033,0.478l-0.383,0.045l-0.01,0l-2.112,-0.012l0,0l-0.004,0l-1.971,-0.017l0,0l-2.042,-0.018l-0.002,-0.001l-0.188,-0.012l-2.184,-0.284l-1.902,-0.078l-0.022,-0.009l-0.295,-0.037l-2.257,-0.574l-2.089,-0.494l-0.001,-0.001l-2.11,-0.498l-0.022,-0.014l-0.061,-0.009l-1.467,-0.446l-1.429,-0.125l-1.481,-0.068l-1.231,0l-0.004,0l-1.479,-0.005l-0.001,0l-0.32,-0.035l-1.346,-0.293l-0.014,-0.009l-0.045,-0.006l-1.412,-0.379l-0.078,-0.052l-0.158,-0.035l-1.122,-0.525l-0.007,-0.007l-0.009,-0.002l-0.969,-0.477l-0.046,-0.073l-0.16,-0.053l-0.645,-0.476l-0.546,-0.052l-0.008,-0.004l-0.058,-0.005l-0.625,-0.097l-0.001,0l-0.515,-0.083l-0.849,-0.08l-0.576,-0.026l-0.905,0.453l-0.001,0l-1.358,0.69l-1.538,1.005l-0.08,0.024l-0.021,0.034l-6.742,3.398l-0.467,0.113l-0.725,-0.301l-0.301,-0.725l0.301,-0.725l0.201,-0.084l0.068,-0.11l6.748,-3.347l1.618,-0.915l0.042,-0.011l0.01,-0.017l1.407,-0.693l0,0l1.121,-0.561l0.338,-0.08l0.042,-0.019l0.82,-0.037l0.85,-0.08l0.507,-0.082l0.011,-0.001l0.001,-0.001l0.612,-0.095l0.07,-0.005l0.008,-0.005l0.902,-0.087l0.133,-0.006l0.645,0.167z" fill="rgb(0%, 0%, 0%)"/>
    </g>
    <g id="svg_22" transform="matrix(1,0,0,1,31.375,113.25) ">
     <path id="svg_23" d="m-788.99692,-262.47238l0.352,0.85l-0.233,0.711l-0.088,0.064l-0.031,0.075l-0.109,0.045l0.002,0.065l0,0.001l0,0l0.022,1.125l0,0.003l0,0l0.036,2.04l0,0.007l0,0l0.031,2.251l0,0.012l0,0l0.017,2.926l0.149,2.957l0.354,3.19l0.005,0.082l0.002,0.006l0.144,2.829l0.344,2.541l0.013,0.19l0,1.971l0,0.009l-0.014,1.902l0,0l0,0.032l-0.035,1.103l0.183,0.832l0.016,0.148l0.009,0.019l0.027,0.304l0.012,0.022l0.083,0.035l0.246,0.592l-0.246,0.593l-0.299,0.124l-0.069,0.09l-0.367,0.103l-0.28,0.038l-0.521,-0.143l-0.284,-0.169l-0.174,-0.307l-0.26,-0.159l-0.224,-0.442l-0.023,-0.098l-0.043,-0.056l-0.34,-0.955l-0.067,-0.384l-0.011,-0.024l-0.039,-1.264l-0.001,-0.035l0,0l-0.013,-1.9l0,-0.01l0,-1.879l-0.339,-2.507l-0.008,-0.119l-0.004,-0.007l-0.133,-2.847l-0.34,-3.192l-0.004,-0.087l-0.002,-0.005l-0.129,-3.025l-0.002,-0.06l0,-0.008l0.017,-2.957l0,0l0,-0.01l0.031,-2.253l0,0l0,-0.005l0.037,-2.042l0,0l0,-0.001l0.022,-1.127l0,0l0.016,-0.845l0.043,-0.098l0.217,-0.629l0.076,-0.049l0.03,-0.069l0.205,-0.083l0.352,-0.229l0.489,-0.122l0.3,-0.038l0.85,0.352z" fill="rgb(0%, 0%, 0%)"/>
    </g>
    <g id="svg_24" transform="matrix(1,0,0,1,35.75,115.625) ">
     <path id="svg_25" d="m-789.02492,-262.47038l0.004,0.009l0.009,0.004l0.109,0.264l0.236,0.534l0.062,1.965l0.059,1.467l0,0.029l0,0.001l0.042,2.18l0,0.016l0,0l0.019,2.265l0.21,2.252l0.473,2.158l0.484,1.934l0,0.001l0.471,1.717l0.438,1.352l0.482,1.242l0.043,0.225l0.032,0.06l0.104,0.713l0.012,0.172l-0.072,0.403l-0.164,0.439l-0.024,0.017l-0.019,0.08l-0.201,0.395l-0.08,0.049l-0.058,0.139l-0.536,0.222l-0.537,-0.222l-0.059,-0.143l-0.08,-0.049l-0.197,-0.385l-0.022,-0.091l-0.026,-0.019l-0.146,-0.39l-0.284,-0.604l0,-0.001l-0.608,-1.206l-0.02,-0.086l-0.04,-0.05l-0.523,-1.386l-0.015,-0.082l-0.023,-0.034l-0.5,-1.748l-0.006,-0.041l-0.008,-0.013l-0.491,-1.962l-0.005,-0.039l-0.006,-0.01l-0.491,-2.244l-0.018,-0.167l-0.01,-0.021l-0.199,-2.39l-0.005,-0.118l0,-0.011l0.019,-2.324l0,0l0,-0.014l0.042,-2.183l0,0l0,-0.026l0.059,-1.472l0.062,-1.964l0.24,-0.542l0.105,-0.254l0.009,-0.004l0.004,-0.009l0.822,-0.333l0.822,0.333z" fill="rgb(0%, 0%, 0%)"/>
    </g>
    <g id="svg_26" transform="matrix(1,0,0,1,28.5,124.625) ">
     <path id="svg_27" d="m-768.28192,-266.36238l0.243,0.586l-0.549,0.78l-2.579,0.928l-0.04,0.008l-0.017,0.012l-3.305,1.043l-0.109,0.017l-0.034,0.021l-4.116,0.896l-0.111,0.013l-0.022,0.011l-2.939,0.411l-0.002,0l-2.72,0.418l-0.098,0.008l-0.012,0.006l-2.177,0.202l-0.016,0.001l-0.002,0.001l-1.141,0.098l-0.818,0.611l-1.001,0.334l-1.178,-0.487l-0.487,-1.178l0.487,-1.178l0.108,-0.044l0.044,-0.09l1.182,-0.925l0.59,-0.204l0.304,-0.15l1.612,-0.142l0.001,0l2.124,-0.214l2.69,-0.414l0.089,-0.007l0.012,-0.006l2.919,-0.288l4.11,-0.639l3.381,-0.631l0.229,-0.022l0.004,-0.001l2.749,-0.027l0.009,0l0.586,0.242z" fill="rgb(0%, 0%, 0%)"/>
    </g>
    <g id="svg_28" transform="matrix(1,0,0,1,28,131) ">
     <path id="svg_29" d="m-789.38592,-263.07538l0.262,-0.007l0.034,0l0.001,-0.001l0.914,-0.008l0.006,0l0,0l1.196,-0.008l0.012,-0.001l1.62,0l0.011,0.001l2.183,0.013l0,0.001l0.035,0l1.972,0.053l0,0l0.018,0l2.253,0.088l0,0.001l0.013,0l2.972,0.147l2.136,-0.038l0.022,0l0.25,0.025l1.826,0.384l0.647,0.803l-0.653,0.804l-1.808,0.38l-2.089,0.51l-0.262,0.032l-0.021,0.009l-3.016,0.149l-0.02,0.001l-0.001,0l-2.246,0.088l-0.023,0l-0.001,0.001l-1.967,0.052l-0.038,0.001l0,0l-2.182,0.014l-0.011,0l-1.62,0l-0.011,0l-1.198,-0.008l0,0l-0.004,0l-0.916,-0.009l-0.001,0l-0.031,-0.001l-0.495,-0.014l-0.003,-0.001l-0.076,-0.003l-0.286,-0.021l-0.725,-0.351l-0.347,-0.144l-0.013,-0.031l-0.031,-0.015l-0.456,-1.161l0.046,-0.117l0.02,-0.209l0.056,-0.282l0.327,-0.542l0.114,-0.276l0.069,-0.029l0.046,-0.075l1.029,-0.37l0.461,0.165z" fill="rgb(0%, 0%, 0%)"/>
    </g>
    <g id="svg_30" transform="matrix(1,0,0,1,50.125,117.25) ">
     <path id="svg_31" d="m-789.41992,-262.98738l0.016,0.032l0.032,0.013l0.074,0.181l0.339,0.419l0.255,0.72l-0.208,0.501l0.017,0.242l0.002,0.05l0.001,0.002l0.056,1.544l0,0.013l0,0l0.055,1.894l0.294,2.252l0.818,2.601l0.021,0.135l0.024,0.04l0.493,2.488l0.593,2.237l0.727,1.717l0.048,0.232l0.049,0.084l0.268,1.357l0.327,1.201l0,0.002l0.18,0.608l0.065,0.441l-0.016,0.222l-0.052,0.353l-0.101,0.183l-0.111,0.383l-0.067,0.106l-0.119,0.064l-0.07,0.17l-0.987,0.409l-0.988,-0.409l-0.072,-0.174l-0.12,-0.066l-0.06,-0.095l-0.116,-0.395l-0.101,-0.184l-0.027,-0.186l-0.174,-0.463l-0.016,-0.092l-0.026,-0.038l-0.356,-1.254l-0.013,-0.097l-0.017,-0.028l-0.255,-1.255l-0.709,-1.676l-0.032,-0.152l-0.044,-0.067l-0.63,-2.382l-0.012,-0.093l-0.015,-0.024l-0.469,-2.46l-0.802,-2.66l-0.039,-0.26l-0.021,-0.043l-0.242,-2.461l-0.008,-0.152l0.001,-0.043l0.057,-1.972l0,0l0,-0.008l0.056,-1.549l0.001,-0.002l0.002,-0.044l0.049,-0.704l0.002,-0.004l0.002,-0.04l0.061,-0.562l0.261,-0.509l0.102,-0.248l0.032,-0.012l0.016,-0.033l0.85,-0.326l0.849,0.326z" fill="rgb(0%, 0%, 0%)"/>
    </g>
    <g id="svg_32" transform="matrix(1,0,0,1,50.875,121) ">
     <path id="svg_33" d="m-773.44292,-265.63538l0.063,0.154l0.111,0.059l0.365,0.548l0.012,0.039l0.02,0.011l0.658,1.075l0.864,1.269l0.048,0.153l0.104,0.129l0.802,1.948l0.009,0.047l0.017,0.023l0.788,2.165l0.002,0.009l0.002,0.002l0.711,1.957l0.006,0.032l0.01,0.013l0.637,1.887l0.015,0.086l0.02,0.031l0.421,1.608l0.016,0.121l0.017,0.029l0.198,1.181l0.254,0.887l0.064,0.447l0,0.036l-0.011,0.494l-0.001,0.002l-0.002,0.062l-0.032,0.495l-0.005,0.011l-0.008,0.111l-0.052,0.353l-0.307,0.556l-0.114,0.275l-0.049,0.02l-0.029,0.053l-0.979,0.365l-0.979,-0.365l-0.028,-0.052l-0.05,-0.021l-0.118,-0.285l-0.304,-0.554l-0.049,-0.336l-0.01,-0.124l-0.005,-0.011l-0.031,-0.486l-0.002,-0.069l-0.001,-0.002l-0.006,-0.287l-0.223,-0.778l-0.021,-0.152l-0.022,-0.037l-0.198,-1.199l-0.391,-1.504l-0.606,-1.839l-0.001,-0.001l-0.682,-1.945l-0.002,-0.013l-0.004,-0.004l-0.754,-2.178l0,-0.001l-0.689,-1.835l-0.63,-1.078l-0.318,0.57l0,0l-0.573,1.039l-0.449,1.192l-0.118,0.15l-0.052,0.16l-0.559,0.756l-0.443,0.89l-0.055,0.034l-0.038,0.121l-0.573,0.829l-0.297,0.622l-0.105,0.066l-0.079,0.216l-0.55,0.648l-0.239,0.11l-0.1,0.177l-0.481,0.287l-0.648,0.181l-0.04,0.017l-0.632,0.01l0,0l-0.488,0.009l-0.012,0.001l0,0l-0.633,0.007l-0.017,0l-0.563,0l-0.002,0l-0.634,-0.001l0,0l-0.633,0l0,0l-0.013,-0.001l-0.494,-0.005l-0.003,-0.001l-0.234,-0.022l-0.783,-0.144l-0.011,-0.006l-0.039,-0.005l-0.642,-0.147l-0.169,-0.107l-0.264,-0.078l-0.99,-0.639l-0.033,-0.062l-0.097,-0.035l-0.846,-0.706l-0.091,-0.194l-0.163,-0.086l-0.768,-1.125l-0.009,-0.03l-0.017,-0.008l-0.902,-1.409l0,-0.002l-0.001,0l-0.822,-1.275l-0.217,-0.733l0,-0.03l0.027,-1.198l0,0l0,-0.013l0.033,-0.987l0,-0.001l0.001,-0.026l0.036,-0.635l0.256,-0.549l0.108,-0.26l0.017,-0.007l0.008,-0.017l0.858,-0.342l0.858,0.342l0.008,0.017l0.017,0.007l0.112,0.27l0.252,0.542l0.036,0.628l0.001,0.032l0,0.001l0.033,0.983l0,0.017l0,0l0.018,0.794l0.633,0.918l0.006,0.021l0.012,0.007l0.92,1.393l0.659,0.952l0.633,0.527l0.703,0.449l0.373,0.08l0.616,0.11l0.36,-0.003l0.014,-0.001l0,0l0.633,0l0.001,0l0,0l0.633,-0.001l0.002,0l0.563,0l0.016,0l0.634,0.007l0.001,0.001l0.009,0l0.492,0.009l0.261,0.004l0.297,-0.318l0.284,-0.544l0.049,-0.03l0.033,-0.105l0.581,-0.838l0.455,-0.908l0.074,-0.045l0.053,-0.156l0.531,-0.698l0.443,-1.105l0.052,-0.064l0.024,-0.09l0.645,-1.127l0.01,-0.006l0.005,-0.019l0.417,-0.683l0.169,-0.611l0.176,-0.259l0.082,-0.22l0.174,-0.204l0.007,-0.054l0.155,-0.289l0.165,-0.422l0.026,-0.013l0.011,-0.026l0.056,-0.023l0.012,-0.022l0.289,-0.109l0.455,-0.222l0.041,-0.004l0.015,-0.008l0.268,-0.04l0.116,-0.008l0.09,-0.038l0.987,0.409z" fill="rgb(0%, 0%, 0%)"/>
    </g>
    <g id="svg_34" transform="matrix(1,0,0,1,73.5,117.625) ">
     <path id="svg_35" d="m-788.89192,-262.60338l0.004,0.009l0.009,0.004l0.127,0.307l0.274,0.624l0.055,2.029l0.051,1.2l0.366,1.71l0.503,1.675l0,0.001l0.636,1.925l0.006,0.034l0.009,0.013l0.606,1.993l0.687,1.418l0.892,1.394l0.778,0.973l0.652,0.77l0.356,0.277l0.383,0.177l0.286,0.095l0.215,-0.004l0.007,0l0.001,0l0.561,-0.01l0.627,-0.013l0.001,0l0.63,-0.014l0.027,0l0.001,0l0.914,-0.006l0.01,0l0,0l0.845,-0.001l0.001,0l0.915,0l0.009,0l0.986,0.005l0,0l0.036,0.001l0.45,0.012l0.572,-0.275l0.001,-0.001l0.797,-0.393l0.57,-0.366l0.384,-0.481l0.168,-0.93l0.046,-0.08l0.046,-0.201l0.361,-0.745l0.784,-0.488l0.58,0.221l0.287,0.548l0.098,0.81l0.004,0.059l0.003,0.005l0.084,1.253l0.004,0.09l-0.138,0.575l-0.531,1.047l-0.138,0.084l-0.1,0.247l-0.692,0.714l-0.166,0.071l-0.066,0.125l-0.801,0.546l-0.066,0.02l-0.019,0.034l-0.885,0.529l-0.718,0.2l-0.074,0.032l-0.842,0.024l-0.039,0l-0.001,0l-0.985,0.005l-0.009,0l-0.915,0l-0.001,0l-0.845,0l0,0l-0.009,0l-0.916,-0.006l0,0l-0.025,-0.001l-0.635,-0.014l0,0l-0.628,-0.013l-0.56,-0.009l0,0l-0.005,0l-0.494,-0.01l-0.02,-0.009l-0.45,-0.073l-0.644,-0.214l-0.038,-0.028l-0.073,-0.015l-0.648,-0.276l-0.175,-0.147l-0.169,-0.058l-0.637,-0.495l-0.075,-0.153l-0.163,-0.075l-0.772,-0.913l-0.01,-0.027l-0.02,-0.01l-0.843,-1.053l-0.039,-0.11l-0.066,-0.037l-0.978,-1.545l-0.029,-0.1l-0.07,-0.079l-0.762,-1.613l-0.036,-0.158l-0.055,-0.08l-0.623,-2.103l-0.001,-0.002l-0.61,-1.951l-0.01,-0.063l-0.015,-0.022l-0.457,-1.757l-0.017,-0.13l-0.016,-0.029l-0.299,-1.9l-0.019,-0.239l0.002,-0.063l0.056,-1.326l0.056,-2.029l0.277,-0.633l0.123,-0.296l0.009,-0.004l0.004,-0.009l0.955,-0.388l0.955,0.388z" fill="rgb(0%, 0%, 0%)"/>
    </g>
    <g id="svg_36" transform="matrix(1,0,0,1,71.875,120.375) ">
     <path id="svg_37" d="m-781.63792,-266.82238l0.913,0.078l0.004,0.002l0.028,0.001l0.978,0.112l0.008,0.004l0.051,0.005l0.826,0.142l0.005,0.003l0.018,0.001l0.749,0.152l0.066,0.081l0.359,0.149l0.248,0.598l-0.248,0.598l-0.365,0.151l-0.065,0.08l-0.738,0.149l-0.029,0.003l-0.006,0.004l-0.813,0.14l-0.062,0.006l-0.009,0.005l-0.967,0.11l-0.039,0.002l-0.004,0.002l-0.773,0.066l-0.972,0.288l-0.135,0.02l-0.035,0.02l-1.24,0.212l-1.397,0.445l-0.897,0.379l-2.826,2.246l-0.842,0.295l-0.954,-0.395l-0.395,-0.954l0.395,-0.954l0.068,-0.028l0.028,-0.059l2.933,-2.418l0.146,-0.052l0.165,-0.142l1.111,-0.504l0.108,-0.024l0.054,-0.039l1.539,-0.49l0.188,-0.029l0.045,-0.025l1.303,-0.189l1.086,-0.223l0.276,-0.028l0.113,0.004z" fill="rgb(0%, 0%, 0%)"/>
    </g>
    <g id="svg_38" transform="matrix(1,0,0,1,74.625,121.625) ">
     <path id="svg_39" d="m-775.72592,-263.66938l1.279,0.126l0.463,0.513l-0.145,0.358l-0.89,0.924l-0.234,0.1l-0.082,0.131l-1.772,0.874l-0.186,0.044l-0.091,0.059l-2.482,0.646l-0.287,0.038l-0.027,0.013l-1.82,0.107l-0.038,0.001l-0.002,0.001l-1.614,0.06l-0.055,0.002l-0.001,0l-1.618,0.011l-0.013,0.001l-1.408,0l-0.032,-0.001l-1.339,-0.024l-0.001,0l-0.035,-0.001l-0.917,-0.037l-0.028,-0.012l-0.374,-0.054l-0.847,-0.246l-0.454,-0.316l-0.242,-0.1l-0.04,-0.096l-0.111,-0.077l-0.334,-0.998l0.485,-1.171l1.171,-0.485l0.339,0.035l0.648,0.136l0.701,-0.028l0.04,-0.001l0.001,-0.001l1.335,-0.024l0.034,0l1.408,0l0.012,0l1.62,0.012l0,0l0.052,0.001l1.62,0.061l0.002,0l0.031,0.001l1.676,0.099l2.371,-0.309l1.903,-0.358l0.216,-0.02l0.112,0.005z" fill="rgb(0%, 0%, 0%)"/>
    </g>
    <g id="svg_40" transform="matrix(1,0,0,1,106.75,110.625) ">
     <path id="svg_41" d="m-788.96792,-262.50138l0.004,0.009l0.009,0.004l0.035,0.036l0.175,0.433l0.19,0.43l0.032,1.106l0.513,1.859l0.011,0.082l0.014,0.023l0.563,2.788l0.809,3.47l0,0.003l0,0.001l0.867,3.644l0.003,0.026l0.004,0.006l0.796,3.575l0,0.001l0.776,3.127l0,0.001l0.687,2.517l0.746,2.034l0.031,0.171l0.035,0.058l0.321,1.523l0.36,1.026l0.004,0.018l0.004,0.006l0.257,0.753l0.172,0.4l0.218,0.355l0.174,0.61l-0.339,0.817l-0.817,0.339l-0.418,-0.078l-0.495,-0.192l-0.233,-0.185l-0.17,-0.065l-0.44,-0.398l-0.111,-0.252l-0.172,-0.099l-0.42,-0.725l-0.034,-0.123l-0.068,-0.085l-0.443,-1.107l-0.035,-0.181l-0.042,-0.068l-0.341,-1.518l-0.734,-2.002l-0.019,-0.105l-0.028,-0.041l-0.696,-2.595l-0.005,-0.039l-0.007,-0.011l-0.761,-3.16l-0.005,-0.045l-0.007,-0.012l-0.75,-3.585l0,-0.002l-0.816,-3.643l-0.003,-0.027l-0.004,-0.007l-0.729,-3.519l-0.008,-0.077l-0.008,-0.015l-0.415,-2.79l-0.416,-2.005l-0.029,-0.278l0.001,-0.039l0.036,-1.268l0.193,-0.438l0.172,-0.423l0.035,-0.036l0.009,-0.004l0.004,-0.009l0.879,-0.364l0.879,0.364z" fill="rgb(0%, 0%, 0%)"/>
     <path id="svg_42" d="m-781.30592,-231.83938l-0.101,0.149l-0.018,0.022l0.133,-0.199l-0.014,0.028z" fill="rgb(0%, 0%, 0%)"/>
    </g>
    <g id="svg_43" transform="matrix(1,0,0,1,115.5,114.625) ">
     <path id="svg_44" d="m-790.08392,-263.14838l0.326,0.077l0.486,0.242l0.084,0.136l0.242,0.1l0.373,0.901l-0.356,0.858l0.006,0.136l0.066,1.322l0.001,0.029l0,0.001l0.067,2.107l0.001,0.026l0,0.001l0.037,2.272l0.418,2.474l0.004,0.048l0.005,0.008l0.351,2.525l0,0.003l0.347,2.307l0.471,1.882l0,0.003l0.412,1.61l0.019,0.141l0.016,0.031l0.145,0.963l0.305,0.515l0.037,0.133l0.075,0.094l0.228,0.573l0.009,0.048l0.016,0.022l0.038,0.107l0.153,0.202l0.254,0.749l-0.36,0.871l-0.871,0.36l-0.312,-0.04l-0.474,-0.124l-0.198,-0.132l-0.249,-0.079l-0.277,-0.198l-0.151,-0.293l-0.255,-0.143l-0.31,-0.505l-0.49,-0.718l-0.118,-0.382l-0.135,-0.231l-0.222,-1.205l-0.41,-1.542l-0.004,-0.026l-0.005,-0.008l-0.49,-1.96l-0.018,-0.144l-0.016,-0.029l-0.344,-2.386l-0.001,-0.015l-0.001,-0.002l-0.351,-2.526l0,-0.001l-0.401,-2.58l-0.02,-0.253l0.001,-0.026l0.038,-2.394l0.001,-0.001l0,-0.022l0.067,-2.113l0.001,-0.001l0,-0.023l0.067,-1.331l0.043,-1.047l0.005,-0.011l0.015,-0.173l0.038,-0.213l0.272,-0.467l0.097,-0.234l0.053,-0.022l0.033,-0.057l0.86,-0.313l0.256,0.093z" fill="rgb(0%, 0%, 0%)"/>
    </g>
    <g id="svg_45" transform="matrix(1,0,0,1,104.875,121) ">
     <path id="svg_46" d="m-774.41992,-265.79038l1.335,0.012l0.545,0.23l0.225,0.547l-0.389,0.673l-1.15,0.664l-0.097,0.026l-0.022,0.034l-1.388,0.606l-0.067,0.015l-0.034,0.025l-2.13,0.749l-0.311,0.054l-0.053,0.026l-1.441,0.132l-1.286,0.417l-0.258,0.042l-0.054,0.028l-1.291,0.157l-1.214,0.324l-0.433,0.058l-1.221,0l-1.288,0.299l-0.187,0.021l-0.028,0.015l-1.122,0.113l-0.002,0l-0.812,0.085l-0.748,0.256l-0.506,0.086l-1.079,-0.447l-0.447,-1.079l0.256,-0.847l0.144,-0.119l0.047,-0.113l0.178,-0.074l0.301,-0.251l0.891,-0.381l0.256,-0.053l0.088,-0.051l0.969,-0.177l0.051,-0.004l0.009,-0.006l1.051,-0.157l1.39,-0.34l0.401,-0.049l1.199,0l1.125,-0.293l0.26,-0.033l0.033,-0.016l1.279,-0.101l1.351,-0.336l0.384,-0.048l0.007,0l1.448,0.006l2.035,-0.47l0.098,-0.012l0.02,-0.011l1.501,-0.219l0.171,-0.013l0.01,0z" fill="rgb(0%, 0%, 0%)"/>
    </g>
    <g id="svg_47" transform="matrix(1,0,0,1,102.875,129.75) ">
     <path id="svg_48" d="m-770.34592,-264.12038l0.522,0.216l0.216,0.522l-0.348,0.627l-0.833,0.518l-0.087,0.025l-0.021,0.034l-1.165,0.55l-0.16,0.036l-0.074,0.048l-1.712,0.431l-0.078,0.01l-0.02,0.011l-1.445,0.267l-0.029,0.003l-0.006,0.003l-1.874,0.313l-0.075,0.006l-0.011,0.006l-1.774,0.21l-1.827,0.329l-0.213,0.019l-0.016,0.008l-2.106,0.111l-0.092,0.002l0,0l-2.042,0.008l-0.007,0l-1.478,0l-0.023,0l-1.339,-0.017l0,0l-0.026,0l-0.917,-0.026l-0.003,-0.001l-0.069,-0.002l-0.496,-0.035l-0.746,-0.357l-0.356,-0.148l-0.012,-0.028l-0.03,-0.014l-0.468,-1.187l0.468,-1.187l0.03,-0.014l0.012,-0.028l0.369,-0.153l0.739,-0.352l0.484,-0.034l0.077,-0.003l0.003,-0.001l0.912,-0.026l0.03,0l0,0l1.337,-0.017l0.024,0l1.478,0l0.007,0l2.026,0.008l2.005,-0.028l1.809,-0.212l0.14,-0.009l0.006,-0.003l1.818,-0.065l1.885,-0.105l0.077,-0.002l0.001,-0.001l1.435,-0.011l1.71,-0.121l1.264,-0.129l0.108,-0.005l0,0l0.986,0z" fill="rgb(0%, 0%, 0%)"/>
    </g>
    <g id="svg_49" transform="matrix(1,0,0,1,139,118.875) ">
     <path id="svg_50" d="m-791.80592,-264.97138l0.845,0.008l0,0l0.041,0.001l0.776,0.034l0.226,0.102l0.498,0.185l0.031,0.056l0.053,0.024l0.103,0.256l0.215,0.385l0.332,2.109l0.015,0.189l-0.345,0.831l-0.831,0.345l-0.758,-0.277l-0.028,-0.049l-0.045,-0.019l-0.089,-0.215l-0.238,-0.412l-0.191,-1.085l-0.61,0.006l-0.012,0l-1.127,0l-0.02,0l-1.401,-0.023l-1.471,-0.007l0,-0.001l-0.036,0l-1.619,-0.057l0,0l-0.003,0l-1.386,-0.054l-1.009,0.127l-0.705,0.352l0.407,0.128l0.012,0.016l0.068,0.013l1.361,0.576l1.705,0.459l0.003,0.004l0.019,0.003l1.627,0.49l0.039,0.053l0.201,0.058l1.318,0.832l1.381,0.777l0.071,0.123l0.18,0.081l0.692,0.783l0.018,0.045l0.033,0.017l0.632,0.842l0.072,0.216l0.07,0.05l0.314,0.896l0.043,0.249l0.014,0.03l0.052,0.839l0,0.007l0,0l0.057,0.98l0,0.021l0.001,0.001l0.051,1.262l0.001,0.05l0,0l-0.294,0.776l-0.882,0.998l-0.959,1.134l-0.041,0.019l-0.019,0.048l-1.117,1.136l-0.179,0.075l-0.067,0.119l-0.832,0.501l-0.108,0.03l-0.027,0.041l-0.968,0.439l-0.14,0.031l-0.065,0.043l-0.898,0.241l-0.233,0.032l-0.026,0.012l-0.696,0.048l-0.024,0.001l-0.002,0.001l-0.511,0.027l-0.151,0.019l-0.184,0.012l-0.713,-0.192l-0.309,-0.18l-0.076,-0.132l-0.207,-0.085l-0.436,-1.016l-0.013,-0.772l0,-0.027l0,-0.845l0.001,-0.049l0.021,-0.635l0,-0.002l0.001,-0.029l0.028,-0.495l0.004,-0.008l0.007,-0.103l0.058,-0.421l0.003,-0.005l0.002,-0.022l0.079,-0.488l0.212,-0.373l0.111,-0.283l0.07,-0.034l0.041,-0.073l0.439,-0.161l0.289,-0.141l0.287,-0.024l0.101,-0.004l0.333,0.048l0.427,0.127l0.706,0.165l0.027,0.034l0.18,0.045l0.384,0.209l0.319,0.54l-0.323,0.542l-0.376,0.204l-0.189,0.049l-0.027,0.034l-0.33,0.078l0.004,0.06l0.004,0.009l0.027,0.487l0.001,0.036l0.001,0.001l0.021,0.631l0.001,0.051l0,0.495l0.206,0.014l0.633,-0.123l0.804,-0.325l0.636,-0.36l0.993,-0.976l0.981,-1.083l0.021,-0.009l0.009,-0.023l0.625,-0.64l0.033,-0.819l0,-0.001l0.001,-0.015l0.056,-0.985l0,-0.001l0,-0.001l0.042,-0.678l-0.156,-0.583l-0.488,-0.651l-0.567,-0.607l-1.277,-0.686l-0.012,-0.021l-0.043,-0.012l-1.225,-0.773l-1.496,-0.46l0,0l-1.74,-0.505l-0.021,-0.028l-0.122,-0.027l-1.333,-0.637l-1.067,-0.333l-0.039,-0.053l-0.193,-0.058l-0.216,-0.142l-0.036,-0.069l-0.098,-0.039l-0.289,-0.649l-0.012,-0.35l0,-0.003l0,0l-0.015,-0.42l-0.001,-0.035l0.121,-0.47l0.199,-0.364l0.218,-0.129l0.133,-0.237l0.481,-0.293l0.018,-0.005l0.005,-0.009l0.895,-0.518l0.208,-0.057l0.106,-0.064l1.25,-0.26l0.176,-0.019l0.011,-0.005l1.474,-0.057l0.007,0l0,0l1.615,-0.057l0.038,0l0,-0.001l1.471,-0.007l1.4,-0.023l0.021,0l1.127,0l0.012,0z" fill="rgb(0%, 0%, 0%)"/>
    </g>
    <g id="svg_51" transform="matrix(1,0,0,1,142.625,118.5) ">
     <path id="svg_52" d="m-775.23192,-265.81838l0.074,0.178l0.123,0.067l0.145,0.226l0.093,0.128l0.319,0.381l0.066,0.183l0.172,0.21l0.284,0.692l0.012,0.057l0.021,0.028l0.489,1.397l0.07,0.407l0.016,0.036l0.071,1.616l0.001,0.068l0,1.968l0.009,2.038l0,0.007l0,3.379l-0.002,0.074l-0.072,1.482l-0.021,0.046l-0.08,0.426l-0.497,1.277l-0.143,0.18l-0.061,0.179l-0.621,0.813l-0.613,0.885l0,0l0,0l-0.004,0.005l-0.008,0.004l-0.685,0.537l-0.905,0.348l-0.548,0.103l-0.986,0l-0.011,0l-0.702,-0.005l-1.124,-0.005l0,0l-0.007,0l-0.916,-0.009l-0.009,-0.003l-0.427,-0.067l-1.135,-0.362l-0.107,-0.078l-0.166,-0.044l-1.09,-0.623l-1.235,-0.618l-0.037,-0.061l-0.134,-0.041l-1.336,-0.926l-0.049,-0.094l-0.127,-0.051l-1.256,-1.209l-0.045,-0.105l-0.09,-0.044l-1.109,-1.417l-0.053,-0.153l-0.079,-0.046l-0.81,-1.488l-0.126,-0.49l-0.044,-0.093l-0.447,-7.109l-0.003,-0.088l0.393,-0.947l0.947,-0.393l0.912,0.358l0.012,0.025l0.023,0.01l0.117,0.282l0.272,0.564l0.513,6.78l0.654,1.092l1.013,1.238l1.123,1.041l1.171,0.791l1.189,0.594l0.009,0.015l0.037,0.01l0.997,0.55l0.762,0.233l0.685,-0.006l0.008,0l0,0l1.125,-0.006l0.701,-0.005l0.011,0l0.706,0l0.223,-0.086l0.373,-0.539l0.014,-0.008l0.008,-0.023l0.507,-0.689l0.33,-0.851l0.056,-1.196l0,-3.343l0,-0.006l0.009,-2.039l0,-1.935l-0.06,-1.364l-0.414,-1.184l-0.174,-0.446l-0.005,-0.006l-0.088,0.461l-0.499,0.41l-0.499,-0.413l-0.169,-0.878l-0.013,-0.133l0.001,-0.031l0.03,-0.647l0.003,-0.006l0.007,-0.095l0.018,-0.117l-0.079,-0.23l0.267,-0.776l0.075,-0.05l0.029,-0.067l0.202,-0.084l0.373,-0.246l0.226,-0.059l0.012,-0.005l0.044,-0.01l0.038,-0.01l0.024,-0.003l0.087,-0.018l0.077,-0.048l0.192,-0.042l0.322,-0.036l1.028,0.426z" fill="rgb(0%, 0%, 0%)"/>
    </g>
    <g id="svg_53" transform="matrix(1,0,0,1,174.5,122.125) ">
     <path id="svg_54" d="m-794.53292,-268.10038l0.9,0.257l0.899,0.133l0.058,0.032l0.21,0.037l0.992,0.364l0.039,0.03l0.067,0.015l0.776,0.369l0.088,0.139l0.266,0.107l0.825,0.795l0.018,0.042l0.04,0.018l0.469,0.513l0.344,0.881l-0.003,0.088l-0.041,0.603l-0.045,2.083l-0.246,0.567l-0.11,0.265l-0.007,0.003l-0.002,0.006l-0.851,0.347l-0.851,-0.347l-0.002,-0.006l-0.007,-0.003l-0.114,-0.275l-0.242,-0.558l-0.045,-2.083l-0.006,-0.08l-0.116,-0.107l-0.692,-0.603l-0.542,-0.235l-0.807,-0.28l-0.856,-0.118l-0.035,-0.018l-0.151,-0.022l-0.799,-0.228l-0.93,0l-0.001,0l-1.126,0l0,0l-0.005,0l-0.997,-0.004l-0.624,0.401l-1.033,0.716l-0.982,0.869l-0.657,0.779l-0.402,0.833l-0.255,1.082l0.023,1.152l0,0.01l0,0l0.023,1.618l0,0.01l0,0l0.011,1.302l0.35,1.012l0.761,1.01l1.179,1.044l1.132,0.641l1.203,0.524l1.228,0.279l1.368,0.117l1.409,0l0.006,0l1.127,0.005l0,0l0.013,0l1.022,0.013l0.549,-0.219l0.663,-0.665l0.801,-1.004l0.011,-0.006l0.006,-0.015l0.721,-0.865l0.406,-0.775l0.001,0l0,-0.002l0.324,-0.605l0.615,-0.366l0.617,0.369l0.319,0.597l0.129,0.508l0,0l-0.003,0.078l-0.074,1.005l-0.041,0.085l-0.1,0.406l-0.587,1.127l-0.019,0.011l-0.012,0.042l-0.694,1.183l-0.096,0.055l-0.06,0.161l-0.882,1.018l-0.145,0.066l-0.357,0.317l-1.099,0.526l-0.654,0.15l-0.023,0.01l-1.337,0.017l-0.015,0l0,0l-1.126,0.005l-0.006,0l-1.479,0l-0.154,-0.008l-1.555,-0.149l-0.031,-0.016l-0.197,-0.024l-1.485,-0.369l-0.088,-0.057l-0.187,-0.041l-1.41,-0.654l-0.056,-0.049l-0.074,-0.021l-1.337,-0.791l-0.065,-0.115l-0.186,-0.072l-1.399,-1.279l-0.073,-0.166l-0.137,-0.071l-0.968,-1.343l-0.075,-0.232l-0.142,-0.198l-0.474,-1.473l-0.075,-0.472l0,0l0,-0.012l0.012,-1.55l0,0l0,-0.008l0.023,-1.62l0,0l0,-0.008l0.027,-1.338l0.005,-0.013l0.043,-0.327l0.373,-1.413l0.065,-0.097l0.045,-0.183l0.582,-1.126l0.109,-0.066l0.077,-0.206l0.853,-0.98l0.096,-0.043l0.043,-0.095l1.131,-0.977l0.094,-0.036l0.033,-0.063l1.125,-0.767l0.028,-0.009l0.008,-0.015l0.98,-0.63l0.738,-0.219l0.012,-0.005l1.408,-0.005l0.005,0l0,0l1.126,-0.001l0.001,0l0,0l1.126,0l0,0l0.383,0.054z" fill="rgb(0%, 0%, 0%)"/>
    </g>
    <g id="svg_55" transform="matrix(1,0,0,1,187.375,113.875) ">
     <path id="svg_56" d="m-796.95392,-263.68138l7.258,0.976l0.417,0.225l0.205,0.085l0.014,0.033l0.035,0.019l0.271,0.721l-0.32,0.773l-0.773,0.32l-0.149,-0.01l-7.01,-0.963l-0.674,0.211l-0.884,0.783l-0.813,0.979l-0.664,1.39l-0.376,1.808l-0.071,2.109l0.046,2.072l0,0.015l0,0.001l0.02,1.681l0.551,1.229l1.108,1.029l1.17,0.513l1.17,0.305l1.479,-0.026l0.011,0l0,0l1.688,-0.019l0.019,0l1.466,0l1.318,-0.511l1.548,-0.692l1.384,-0.745l0.044,-0.011l0.011,-0.017l1.376,-0.677l0.002,0l0,0l1.046,-0.521l0.589,-0.854l0.033,-0.017l0.018,-0.05l0.648,-0.789l0.171,-0.08l0.071,-0.121l0.589,-0.328l0.246,-0.064l0.499,0.499l-0.003,0.057l-0.076,0.676l-0.014,0.025l-0.019,0.126l-0.303,0.982l-0.012,0.009l-0.01,0.053l-0.489,1.262l-0.213,0.145l-0.193,0.382l-1.187,0.875l-0.038,0.013l-0.012,0.023l-1.275,0.858l-0.008,0.003l-0.003,0.004l-1.36,0.906l-0.084,0.025l-0.072,0.066l-1.589,0.812l-0.09,0.022l-0.055,0.044l-1.607,0.635l-0.587,0.114l0,0l-1.76,0l-0.018,0l-1.69,-0.019l0,0l-0.009,0l-1.69,-0.03l-0.014,-0.006l-0.411,-0.062l-1.478,-0.46l-0.083,-0.06l-0.143,-0.035l-1.464,-0.752l-0.087,-0.143l-0.252,-0.102l-1.46,-1.427l-0.068,-0.16l-0.241,-0.289l-0.76,-1.756l-0.118,-0.563l0,-0.017l0.024,-1.971l0,-0.001l0,-0.013l0.047,-2.112l0.001,-0.003l0.004,-0.087l0.206,-2.252l0.015,-0.029l0.025,-0.186l0.559,-2.032l0.067,-0.099l0.044,-0.165l0.903,-1.593l0.09,-0.052l0.059,-0.15l1.014,-1.102l0.062,-0.027l0.027,-0.059l1.131,-0.977l0.314,-0.117l0.073,-0.098l1.118,-0.35l0.331,-0.051l0.144,0.009z" fill="rgb(0%, 0%, 0%)"/>
    </g>
    <g id="svg_57" transform="matrix(1,0,0,1,187.375,113.875) ">
     <path id="svg_58" d="m-789.34492,-261.62238l-0.502,0.502l-0.502,-0.502l0.502,-0.502l0.502,0.502z" fill="rgb(0%, 0%, 0%)"/>
    </g>
    <g id="svg_59" transform="matrix(1,0,0,1,187.375,113.875) ">
     <path id="svg_60" d="m-782.73792,-262.88838l0.408,0.984l-0.057,0.397l-1.571,5.286l0.086,2.134l0,0.029l0.001,0l0.053,2.204l0.124,1.535l1.046,1.278l1.101,1.131l1.238,0.63l1.399,0.434l1.207,0.339l1.231,-0.001l0.001,0l1.126,0l0.036,0l0.733,0.015l0.593,-0.264l0.807,-0.927l0.063,-0.029l0.028,-0.067l1.151,-1.117l1.118,-1.372l0.954,-1.677l0.514,-1.666l0.287,-1.513l0.615,-0.506l0.616,0.509l0.296,1.557l0.018,0.18l0,0l-0.003,0.062l-0.128,1.919l-0.019,0.039l-0.049,0.278l-0.749,2.042l-0.067,0.086l-0.033,0.122l-1.001,1.702l-0.06,0.034l-0.037,0.108l-1.005,1.313l-0.893,1.291l-0.086,0.045l-0.48,0.466l-1.228,0.684l-0.776,0.204l-0.053,0.023l-1.124,0.022l-0.038,0.001l-1.126,0l-0.001,0l-1.478,-0.001l-0.001,0l-0.495,-0.071l-1.489,-0.432l-0.013,-0.009l-0.03,-0.005l-1.558,-0.507l-0.103,-0.075l-0.169,-0.043l-1.619,-0.865l-0.295,-0.281l-0.153,-0.067l-1.319,-1.423l-0.032,-0.08l-0.063,-0.031l-1.386,-1.772l-0.247,-0.713l-0.113,-0.247l-0.11,-2.109l-0.003,-0.091l0.001,-0.04l0.054,-2.254l0,0l0.001,-0.023l0.096,-2.393l0.015,-0.033l0.066,-0.397l1.464,-4.253l-4.391,0.039l-0.005,0l-0.502,-0.502l0.46,-0.5l4.98,-0.414l0.125,-0.167l0.077,-0.185l0.09,-0.038l0.082,-0.108l0.813,-0.262l0,0l0.984,0.408z" fill="rgb(0%, 0%, 0%)"/>
    </g>
    <g id="svg_61" transform="matrix(1,0,0,1,186.25,113.75) ">
     <path id="svg_62" d="m-774.54292,-266.88238l0.652,0.198l0.034,0.046l0.181,0.048l0.232,0.131l0.355,0.613l-0.006,0.089l-0.034,0.267l-0.362,0.679l-0.332,0.126l-0.075,0.102l-0.63,0.191l-1.178,0.407l-0.106,0.018l-0.038,0.024l-1.368,0.33l-0.158,0.02l-0.028,0.015l-1.673,0.207l-1.59,0.495l-0.12,0.018l-0.037,0.024l-2.093,0.455l-0.001,0l-2.001,0.483l0,0l-1.546,0.419l-2.579,1.358l-0.803,0.2l-1.205,-0.498l-0.498,-1.205l0.241,-0.874l0.201,-0.195l0.056,-0.136l0.149,-0.061l0.234,-0.226l2.723,-1.5l0.23,-0.059l0.133,-0.092l1.743,-0.505l0.067,-0.01l0.021,-0.013l2.03,-0.49l0.087,-0.011l0.021,-0.012l2.069,-0.379l1.704,-0.425l0.345,-0.043l0.017,-0.008l1.809,-0.055l1.361,-0.084l1.244,-0.131l0.143,-0.008l0.379,0.057z" fill="rgb(0%, 0%, 0%)"/>
    </g>
    <g id="svg_63" transform="matrix(1,0,0,1,189.625,120.5) ">
     <path id="svg_64" d="m-774.69392,-263.52338l1.614,0.025l0.522,0.223l0.216,0.527l-0.428,0.677l-1.451,0.689l-0.066,0.015l-0.013,0.02l-2.158,0.847l-0.073,0.014l-0.033,0.022l-2.546,0.786l-0.093,0.014l-0.03,0.019l-2.074,0.469l-0.292,0.034l-0.018,0.008l-1.754,0.068l-0.036,0l-0.001,0.001l-2.039,0.039l-0.031,0.001l0,0l-1.619,0.003l-0.004,0l-1.338,0l-0.021,0l-0.916,-0.011l-0.039,-0.016l-0.827,-0.226l-0.211,-0.216l-0.142,-0.06l-0.06,-0.146l-0.219,-0.224l-0.476,-0.843l-0.227,-0.858l0.507,-1.223l1.223,-0.507l0.859,0.228l0.227,0.222l0.137,0.057l0.054,0.13l0.187,0.182l1.282,0l0.004,0l1.619,0.004l0,0l0.03,0l2.042,0.04l0.001,0l0.031,0.001l1.637,0.063l1.953,-0.211l2.571,-0.463l0.011,-0.002l0.002,-0.001l2.286,-0.403l0.203,-0.018l0,0l0.017,0z" fill="rgb(0%, 0%, 0%)"/>
    </g>
    <g id="svg_65" transform="matrix(1,0,0,1,222.25,111.125) ">
     <path id="svg_66" d="m-796.87892,-264.25338l1.897,0.011l1.333,0l0.408,0.071l3.826,1.365l0.295,0.225l0.164,0.068l0.035,0.084l0.101,0.077l0.233,0.73l-0.369,0.891l-0.891,0.369l-0.452,-0.084l-3.575,-1.372l-1.108,0l-1.793,0.011l-1.349,0.24l-1.171,0.567l-0.026,0.006l-0.005,0.009l-1.031,0.473l-0.453,0.297l0.001,0.204l0,0.005l0,0l0.001,0.206l0.184,0.245l1.057,0.497l0,0l2.093,0.962l2.099,0.898l0.015,0.022l0.065,0.016l1.908,0.989l0.005,0.008l0.018,0.005l2.048,1.129l0.026,0.044l0.088,0.028l1.203,0.844l0.016,0.031l0.046,0.016l1.137,0.908l0.039,0.083l0.094,0.04l0.787,0.832l0.096,0.241l0.235,0.363l0.224,0.902l0.034,0.269l0.007,0.017l0.027,0.682l0.042,0.604l0,0.019l0.001,0.001l0.053,0.908l0.003,0.092l-0.163,0.676l-0.518,1.019l-0.252,0.273l-0.062,0.144l-1.089,1.024l-0.053,0.021l-0.021,0.045l-1.383,1.15l-0.175,0.064l-0.057,0.098l-1.739,1.003l-0.043,0.012l-0.032,0.029l-1.808,0.936l-0.251,0.061l-0.125,0.082l-2.026,0.505l-0.155,0.02l-0.032,0.017l-1.607,0.227l-0.219,0.016l-0.005,0.002l-1.125,0.016l-0.014,0l0,0.001l-0.985,0.007l-0.014,0l-0.493,0l-0.39,-0.044l-0.145,-0.033l-0.539,-0.341l-0.279,-0.116l-0.034,-0.082l-0.092,-0.058l-0.376,-1.072l0.067,-0.415l0.08,-0.535l0.531,-0.955l0.041,-0.015l0.016,-0.032l1.206,-0.947l0.141,-0.049l0.044,-0.076l1.483,-0.839l0.106,-0.028l0.07,-0.055l1.295,-0.501l0.366,-0.069l0.704,0.292l0.291,0.704l-0.295,0.708l-0.992,0.981l-0.045,0.019l0.675,-0.081l1.772,-0.414l1.643,-0.794l1.619,-0.88l1.31,-1.008l0.948,-0.77l0.266,-0.418l0.031,-0.529l0,0l0.001,-0.011l0.042,-0.611l0.02,-0.509l-0.087,-0.402l-0.455,-0.513l-1.002,-0.828l-1.095,-0.778l-1.968,-1.085l-1.843,-0.956l-2.074,-0.91l-0.005,-0.007l-0.021,-0.005l-2.114,-1.001l0,0l-1.339,-0.639l-0.139,-0.222l-0.329,-0.165l-0.632,-0.841l-0.26,-0.777l0,0l0,-0.003l0.002,-0.634l0,0l0,-0.004l0.003,-0.634l0.012,-0.027l0.236,-0.723l0.36,-0.493l0.243,-0.123l0.116,-0.207l0.776,-0.478l0.147,-0.042l0.034,-0.051l1.119,-0.467l1.307,-0.606l0.236,-0.053l0.083,-0.047l1.613,-0.274l0.212,-0.018l0.008,0z" fill="rgb(0%, 0%, 0%)"/>
    </g>
    <g id="svg_67" transform="matrix(1,0,0,1,245.25,113.375) ">
     <path id="svg_68" d="m-800.97492,-263.38538l1.118,0.054l1.457,0.053l1.328,0.027l0.001,0.001l0.049,0.001l7.252,0.456l0.51,0.241l0.243,0.1l0.007,0.018l0.018,0.008l0.319,0.804l-0.344,0.83l-0.83,0.344l-0.063,-0.002l-7.209,-0.387l-1.282,0.026l-1.459,0.053l-0.872,0.043l-0.811,0.35l-0.006,0.002l-0.003,0.002l-0.514,0.222l-0.277,0.356l-0.074,0.036l-0.038,0.09l-0.1,0.1l-0.025,0.6l-0.001,0.001l0,0.019l-0.019,0.319l0.016,0.081l0.775,0.324l0.016,0.024l0.072,0.018l1.618,0.842l1.964,0.459l0.01,0.006l0.03,0.004l2.265,0.623l0.091,0.062l0.162,0.04l1.828,0.974l1.674,0.836l0.03,0.049l0.108,0.033l1.137,0.767l0.146,0.276l0.242,0.138l0.574,0.972l0.02,0.072l0.029,0.018l0.304,0.613l0.119,0.498l0.024,0.055l0.03,0.756l0.04,0.608l0.004,0.097l-0.012,0.18l-0.091,0.718l-0.485,0.908l-0.123,0.047l-0.043,0.08l-1.447,0.951l-0.095,0.028l-0.025,0.043l-1.878,1.009l-0.101,0.026l-0.065,0.052l-1.956,0.783l-0.094,0.018l-0.042,0.03l-2.099,0.638l-0.224,0.034l-0.046,0.025l-1.836,0.232l-1.533,0.32l-0.25,0.026l-0.018,0.008l-1.104,0.054l-0.669,0.048l-0.254,0.042l-0.186,0.016l-0.12,0.049l-1.314,-0.544l-0.545,-1.315l0.545,-1.315l1.314,-0.544l0.119,0.049l0.176,0.014l0.267,0.044l0.671,0.049l0.945,0.045l1.464,-0.205l0.07,-0.005l0.008,-0.004l1.753,-0.168l1.913,-0.567l1.848,-0.713l1.805,-0.903l0.932,-0.543l0.029,-0.448l0.019,-0.469l-0.12,-0.303l-0.361,-0.653l-0.795,-0.557l-1.612,-0.805l-0.006,-0.011l-0.026,-0.007l-1.703,-0.927l-2.088,-0.599l-2.084,-0.486l-0.096,-0.061l-0.192,-0.047l-1.698,-0.881l-1.355,-0.517l-0.165,-0.13l-0.16,-0.055l-0.097,-0.148l-0.171,-0.135l-0.074,-0.238l-0.115,-0.174l-0.234,-0.9l-0.031,-0.239l-0.011,-0.023l-0.029,-0.487l-0.001,-0.025l0,-0.002l-0.027,-0.629l-0.001,-0.032l0,-0.001l-0.011,-0.491l0,-0.031l0.406,-0.979l0.432,-0.432l0.442,-0.568l0.095,-0.047l0.479,-0.385l0.84,-0.338l0.031,-0.006l0.015,-0.012l1.057,-0.39l0.475,-0.086l0.065,0.002z" fill="rgb(0%, 0%, 0%)"/>
    </g>
   </g>
   <g id="svg_69" transform="matrix(0.9921,0,0,0.9921,852.72572439,544.56011844) ">
    <path id="svg_70" d="m-577.59992,-418.53638l0.083,0.199l0.199,0.083l0.318,0.768l0,0.141l0,0.002l0,0.352l-0.001,0l0,0.006l-0.001,0.211l0,0l-0.001,0.032l-0.009,0.262l0,0.075l0.094,0.186l0.12,0.493l0,0.216l0.137,0.25l0.135,0.52l0,0.031l-0.01,0.338l-0.002,0.477l0,1.125l0,0.002l0,0.422l-0.001,0.001l-0.003,0.085l-0.002,0.028l-0.001,0.379l0,0l0,0.005l-0.002,0.352l0,0l-0.001,0.028l-0.004,0.136l0.115,0.291l0.075,0.383l0,1.393l0.023,0.756l0,0.032l0,0l0.001,0.704l0,0.001l0,2.676l0,0.001l-0.001,0.492l0,1.118l0.009,0.626l0,0.013l0,0l0.001,0.352l0,0.002l0,0.775l-0.001,0.013l-0.007,0.563l-0.006,0.552l0.129,0.901l0.011,0.149l0,0l0.002,0.545l0.144,0.818l0.017,0.189l0,0l0.001,0.764l0.128,0.829l0.013,0.168l0,0.32l0.154,0.463l0.008,0.045l0.008,0.007l0.091,0.316l0.243,0.341l0.062,0.191l0.066,0.046l0.109,0.282l0.239,0.419l0.03,0.112l0.035,0.024l0.196,0.491l0.006,0.031l0.008,0.005l0.279,0.767l0.011,0.061l0.012,0.009l0.224,0.763l0.013,0.088l0.014,0.024l0.154,0.827l0.135,0.603l0.027,0.24l0,0.001l0.001,0.664l0.122,0.588l0.024,0.225l0,0l0,0.272l0.122,0.283l0.089,0.427l0.001,0.003l0.001,0.354l0.061,0.152l0.08,0.407l0.001,0.002l0,0.201l0.072,0.25l0.164,0.324l0.119,0.495l0,0.346l0.062,0.225l0.133,0.236l0.141,0.53l0,0.01l-0.006,0.629l0,0.619l0.014,0.763l0,0.005l0,0l0.013,0.844l0,0.015l0,0l0.001,0.843l0.005,1.053l0.008,0.98l0.013,0.982l0,0l0.018,1.123l0,0.017l0,0l0.002,0.986l0,0.002l0,1.756l0.005,0.911l0,0.007l0,0l0.001,0.845l0,0.001l0,0.774l0,0.001l-0.001,0.844l0,1.478l0.001,1.055l0,0.001l-0.048,0.328l-0.162,0.544l0,1.733l0,0.001l-0.001,0.985l0,1.618l0.001,0.774l0,0.001l0,0.704l0,0.002l-0.001,0.562l0,0.703l0,0.001l-0.001,0.775l0,0l0,0.008l-0.005,0.634l-0.001,0.003l-0.022,0.217l-0.122,0.591l-0.001,0.799l0,0.001l-0.049,0.327l-0.164,0.544l-0.001,0.748l0,0l-0.018,0.202l-0.142,0.777l-0.139,0.831l-0.012,0.022l-0.011,0.083l-0.213,0.782l-0.002,0.003l0,0.004l-0.098,0.341l0,1.178l0,0.002l-0.001,0.422l0,0l0,0l0,0.353l-0.001,0.352l0,0l0,0.011l-0.005,0.423l0,0l0,0.004l-0.006,0.343l0,0.764l0.001,0.35l0,0.002l0,0l0,0.767l0.014,0.977l0,0.011l0,0l0.005,0.985l0,0.006l0,0.986l0,0.001l-0.001,1.126l0,0.986l-0.001,1.055l0,0.985l0.001,1.126l0,0l0.001,1.337l0.001,1.126l0,0.001l0,0l0.001,1.616l0.012,2.037l0.019,1.968l0,0.007l0,0l0.009,2.111l0,0l0.013,2.393l0,0.002l0,0l0.007,2.253l0,0.002l0,0l0.005,2.393l0,0.002l0,0l0.001,1.971l0,0.001l0,3.872l0,2.111l0,0l0.001,2.04l0.007,1.967l0.014,2.04l0,0.008l-0.003,0.087l-0.137,1.929l0,1.574l0,1.901l0,0l-0.004,0.098l-0.141,1.765l-0.002,0.005l-0.003,0.048l-0.212,1.661l-0.145,1.872l0,0l-0.141,1.896l-0.002,0.005l-0.002,0.041l-0.209,1.808l-0.138,1.877l0,0.001l0,0.003l-0.141,1.764l-0.001,0l-0.131,1.754l-0.008,0.018l-0.016,0.146l-0.335,1.545l-0.129,1.488l0,1.283l-0.012,0.167l-0.212,1.555l0,0l-0.134,1.034l-0.001,0.907l0,0.001l-0.014,0.179l-0.135,0.902l-0.006,0.547l-0.005,0.627l-0.001,0.49l0,0l0,0l-0.001,0.773l0,0.203l0.005,0.412l0.008,0.454l0.008,0.018l0.011,0.327l0.008,0.11l0.001,0.024l0.029,0.07l-0.372,0.897l-0.897,0.371l-0.342,-0.142l-0.001,0l-0.472,0.007l-0.359,0.013l-0.524,0.067l-0.567,0.131l-0.242,0.028l-0.007,0.003l-0.562,0.009l-0.02,0l0,0l-0.362,0.001l-0.028,0.022l-0.737,0.261l-1.76,0l-0.33,0l-0.61,0.171l-0.04,0.006l-0.012,0.008l-0.623,0.149l-0.002,0.001l-0.618,0.154l-0.295,0.036l-0.001,0.001l-0.493,0.001l-0.004,0l-0.242,0l-0.462,0.141l0,0l-0.368,0l-0.012,0.005l-0.08,0.003l-0.147,0.037l-0.287,0.037l-0.006,0.002l-0.238,0.003l-0.393,0.176l-0.173,0.038l-0.07,0.043l-0.438,0.098l-0.174,0.104l-0.18,0.051l-0.116,0.08l-0.108,0.032l-0.73,0.302l-0.118,-0.049l-0.166,-0.001l-0.132,0l-0.063,0.001l-0.013,0l-0.633,0l-0.492,0l-0.002,0l-1.375,0l-0.262,0.113l-0.475,0.099l-2.675,0l-1.125,0l-0.001,0l-0.844,0l-1.346,0.002l-1.27,0.134l-0.131,0.007l-1.304,0l-1.511,0.265l-0.06,0.005l-0.009,0.005l-1.74,0.21l-1.727,0.277l-0.051,0.005l-0.008,0.004l-1.7,0.196l-1.487,0.516l-0.399,0.069l-1.689,0l-1.623,0.195l-1.403,0.334l-0.284,0.033l-0.003,0l-1.665,-0.004l-1.656,0.261l-1.45,0.272l-0.224,0.021l-0.001,0l-1.548,-0.001l0,0l-0.003,0l-1.385,-0.004l-1.238,0.196l-0.19,0.015l-0.004,0l-1.408,-0.005l-1.476,-0.005l-2.532,0l-1.267,0.001l-1.478,0.002l0,0l0,0l-1.479,0l0,0l-1.901,0.001l-2.113,0l-2.252,-0.001l-8.987,0l-3.352,0.14l-0.006,0l0,0l-3.588,0.14l-0.028,0.001l-0.001,0l-4.249,0.069l-4.456,0.417l-0.022,0.001l-0.002,0.001l-4.572,0.351l-0.012,0.001l-0.001,0l-4.969,0.345l-5.102,0.628l-0.002,0l0,0l-4.992,0.632l-0.015,0.001l-0.001,0.001l-5.346,0.628l-0.027,0.001l-0.003,0.002l-5.129,0.492l-5.259,0.626l-0.002,0l-4.987,0.632l-0.007,0l-0.001,0l-4.993,0.626l-0.057,0.004l-0.006,0.002l-4.685,0.35l-4.748,0.629l-0.155,0.011l0,0l-4.506,0.001l0,0l-4.505,0l-4.506,0l-4.435,0l-4.436,0l-4.083,-0.002l-0.001,0l-3.872,-0.004l0,0l0,0l-3.802,-0.006l0,0l-0.003,0l-3.097,-0.015l-2.883,-0.008l-2.604,0l0,0l-2.253,-0.001l-2.252,-0.002l0,0l-1.971,-0.001l-1.901,0l-1.972,0l0,0l-1.759,-0.001l-1.761,0l-1.759,-0.001l-1.901,0l0,0l-1.479,0l-1.619,-0.001l0,0l-0.004,0l-1.267,-0.005l0,0l-0.003,0l-1.127,-0.008l0,0l-0.002,0l-0.705,-0.007l0,0l-0.003,0l-1.057,-0.014l0,0l-0.017,0l-0.494,-0.015l-0.001,-0.001l-0.046,-0.002l-0.213,-0.016l-0.438,-0.212l-0.21,-0.087l-0.008,-0.018l-0.019,-0.01l-0.275,-0.702l0.275,-0.702l0.019,-0.009l0.008,-0.019l0.217,-0.09l0.434,-0.209l0.207,-0.016l0.05,-0.002l0.002,-0.001l0.491,-0.015l0.019,0l0,0l1.055,-0.014l0.005,0l0,0l0.703,-0.007l0.003,0l0,0l1.126,-0.008l0.004,0l0,0l1.267,-0.005l0.004,0l0,0l1.619,-0.001l1.479,0l0,0l1.901,0l1.759,-0.001l1.761,0l1.759,-0.001l0,0l1.972,0l1.901,0l1.971,-0.001l0,0l2.252,-0.002l0,0l2.253,-0.001l0,0l2.604,0l2.883,-0.008l3.097,-0.015l0.003,0l0,0l3.802,-0.006l0,0l0,0l3.872,-0.004l0.001,0l0,0l4.083,-0.002l4.436,0l4.435,0l4.506,0l4.505,0l0,0l4.431,0.001l4.707,-0.622l0.064,-0.005l0.006,-0.002l4.688,-0.35l4.961,-0.637l0.006,0l0.001,0l4.992,-0.634l0.011,-0.001l0.002,-0.001l5.274,-0.638l0.03,-0.002l0.004,-0.001l5.129,-0.492l5.327,-0.636l0.002,0l4.987,-0.634l0.009,-0.001l0.001,0l5.134,-0.634l0.059,-0.004l0.006,-0.003l4.994,-0.356l0.001,0l4.566,-0.352l4.487,-0.422l0.093,-0.004l0.002,-0.001l4.281,-0.071l3.575,-0.141l0,0l3.376,-0.141l0.051,-0.001l9.011,0l2.252,-0.001l2.113,0l1.901,0.001l0,0l1.479,0.001l0,0l0,0l1.478,0.001l1.267,0.001l2.532,0l1.477,-0.004l1.317,-0.005l1.242,-0.196l0.186,-0.015l0,-0.001l1.479,-0.004l0.003,0l0,0l1.436,-0.001l1.359,-0.264l0.035,-0.003l0.008,-0.004l1.752,-0.285l0.194,-0.016l0,-0.001l1.622,-0.004l1.335,-0.318l0.121,-0.015l0.022,-0.011l1.754,-0.211l0.148,-0.009l1.558,0l1.42,-0.495l0.219,-0.037l0.045,-0.024l1.807,-0.209l1.725,-0.275l0.047,-0.004l0.007,-0.003l1.731,-0.207l1.58,-0.273l0.209,-0.019l1.346,0l1.271,-0.133l0.129,-0.007l0.001,0l1.408,0.002l0.844,0l1.127,0l2.431,0l0.261,-0.112l0.475,-0.099l1.619,0l0.002,0l0.492,0.001l0.58,0l0.213,-0.144l0.335,-0.094l0.205,-0.123l0.239,-0.066l0.131,-0.082l0.516,-0.115l0.514,-0.227l0.504,-0.108l0.015,0l0.336,0.004l0.122,-0.03l0.302,-0.038l0.042,0.001l0.213,0.007l0.012,0.005l0.116,0l0.462,-0.141l0.492,0l0.004,0l0.373,0.002l0.513,-0.101l0.002,0l0.602,-0.124l0.732,-0.194l0.309,-0.041l0.002,0l0.491,0.001l1.349,0l0.029,-0.023l0.734,-0.258l0.001,0l0.774,0.001l0,0l0.019,0l0.43,0.007l0.497,-0.106l0.122,-0.014l0.017,-0.008l0.63,-0.061l0.114,-0.005l0.042,0l0.024,0.001l0.003,-0.268l0,-0.203l-0.002,-0.773l0,0l0,0l0,-0.49l-0.005,-0.628l-0.007,-0.629l0,-0.015l0.011,-0.163l0.122,-0.905l-0.001,-0.901l0,-0.002l0.009,-0.147l0.137,-1.133l0.001,-0.002l0.001,-0.01l0.199,-1.467l0,-1.254l0.005,-0.106l0.141,-1.624l0.009,-0.018l0.014,-0.132l0.336,-1.543l0.143,-1.683l0,0l0.14,-1.754l0,0l0.141,-1.894l0.002,-0.004l0.002,-0.041l0.209,-1.808l0.139,-1.877l0,0l0.134,-1.897l0.002,-0.006l0.004,-0.053l0.204,-1.667l0.134,-1.684l0.001,-1.851l0,-1.619l0.003,-0.088l0.139,-1.931l0.013,-2l0.007,-1.967l0.001,-2.04l0,-2.111l0,-3.873l0.001,-1.971l0,0l0,-0.002l0.005,-2.394l0,0l0,-0.001l0.008,-2.253l0,0l0,-0.002l0.012,-2.393l0.01,-2.112l0,0l0,-0.005l0.018,-1.97l0.012,-2.036l0.001,-1.616l0,0l0,-0.001l0.001,-1.126l0.001,-1.337l0,0l0.001,-1.126l0,-0.985l-0.001,-1.055l0,-0.001l0,-0.985l-0.001,-1.125l0,-0.002l0,-0.986l0,-0.006l0.005,-0.985l0,0l0,-0.01l0.014,-0.978l0,-0.767l0.001,0l0,-0.002l0,-0.35l0,-0.764l-0.005,-0.342l-0.001,-0.006l0,0l-0.005,-0.422l0,-0.012l0,0l0,-0.351l0,-0.001l-0.001,-0.351l0,-0.001l0,0l-0.001,-0.422l0,-0.002l0,-1.338l0.043,-0.309l0.142,-0.501l0,0l0.191,-0.701l0.132,-0.793l0.002,-0.002l0,-0.007l0.122,-0.675l-0.001,-0.813l0,0l0.047,-0.322l0.162,-0.547l0,-0.75l0,-0.001l0.02,-0.215l0.115,-0.594l-0.004,-0.519l0,-0.008l0,0l-0.001,-0.775l0,-0.001l0,-0.703l0,-0.562l0,-0.002l0,-0.704l0,-0.001l0,-0.774l0,-1.618l0,-0.985l0,-1.902l0.048,-0.33l0.164,-0.543l0,-0.887l0,-1.478l-0.001,-0.844l0,-0.001l0,-0.774l0,-0.001l0.001,-0.845l0,0l0,-0.006l0.006,-0.912l0,-1.756l0,-0.002l0.002,-0.986l0,0l0,-0.016l0.017,-1.126l0.013,-0.98l0.008,-0.981l0.005,-1.052l0.002,-0.843l0,0l0,-0.014l0.012,-0.846l0,0l0.001,-0.003l0.014,-0.765l0,-0.618l-0.003,-0.322l-0.053,-0.084l-0.069,-0.234l-0.058,-0.043l-0.144,-0.484l-0.047,-0.316l0,-0.238l-0.094,-0.189l-0.03,-0.127l-0.044,-0.065l-0.139,-0.485l-0.043,-0.304l0,-0.003l0.001,-0.143l-0.061,-0.151l-0.079,-0.407l0,-0.003l0.001,-0.34l-0.121,-0.281l-0.09,-0.432l0,-0.002l0.001,-0.389l-0.115,-0.596l-0.021,-0.21l0,-0.001l0.001,-0.657l-0.113,-0.511l-0.008,-0.069l-0.008,-0.014l-0.117,-0.795l-0.171,-0.676l-0.249,-0.685l-0.186,-0.404l-0.255,-0.443l-0.028,-0.105l-0.035,-0.023l-0.099,-0.239l-0.279,-0.39l-0.089,-0.275l-0.07,-0.053l-0.136,-0.476l-0.2,-0.599l-0.057,-0.343l0,-0.412l-0.127,-0.829l-0.013,-0.167l0,-0.001l0,-0.775l-0.111,-0.843l-0.01,-0.141l0,-0.004l0.002,-0.558l-0.129,-0.905l-0.01,-0.14l-0.001,-0.002l-0.007,-0.632l-0.007,-0.561l0,-0.014l0,-0.775l0,-0.002l0.001,-0.352l0,0l0,-0.012l0.008,-0.627l0,-1.118l0,-0.492l0,-0.001l0,-2.676l0,-0.001l0,-0.704l0,0l0.001,-0.03l0.023,-0.759l0,-1.168l-0.128,-0.277l-0.083,-0.373l-0.015,-0.032l-0.011,-0.35l-0.001,-0.03l0,0l-0.002,-0.352l0,-0.005l0,0l-0.001,-0.379l-0.002,-0.024l-0.004,-0.09l0,0l0,-0.422l0,-0.002l0,-1.125l-0.002,-0.477l-0.002,-0.062l-0.145,-0.245l-0.154,-0.555l0,-0.242l-0.095,-0.193l-0.113,-0.48l0,-0.333l-0.01,-0.259l-0.001,-0.034l0,0l-0.001,-0.17l-0.005,-0.014l-0.1,-0.041l-0.318,-0.768l0.318,-0.769l0.768,-0.318l0.141,0l0.768,0.318z" fill="rgb(0%, 0%, 0%)"/>
   </g>
   <g id="svg_71" transform="matrix(0.9921,0,0,0.9921,1062.80289939,533.02695594) ">
    <path id="svg_72" d="m-789.10892,-262.39338l0.005,0.012l0.011,0.005l0.097,0.234l0.215,0.472l0.009,0.208l0.001,0.028l0,0.001l0.006,0.28l0,0.014l0,0l0.006,0.631l0.014,1.068l0.405,1.055l1.077,1.788l1.439,2.163l1.929,2.265l0.009,0.023l0.017,0.009l2.181,2.743l0.003,0.009l0.006,0.003l2.435,3.132l3.064,3.344l0,0l3.304,3.593l0.021,0.055l0.043,0.021l3.09,4.003l3.367,4.139l0.011,0.031l0.022,0.011l3.237,4.361l0,0.001l3.513,4.637l0,0l3.515,4.569l0.001,0.001l0,0.001l3.733,4.84l3.866,4.768l0.008,0.023l0.016,0.008l3.587,4.711l3.651,4.633l0,0l3.506,4.361l0.015,0.043l0.029,0.014l2.945,4.141l2.725,3.575l0.007,0.021l0.014,0.007l2.532,3.517l0,0l2.233,3.002l1.948,2.444l1.739,2.097l1.396,1.607l0.001,0.003l0.002,0.001l0.978,1.131l0.028,0.075l0.051,0.027l0.241,0.352l0.101,0.094l0.064,0.148l0.108,0.157l0.051,0.036l0.026,0.077l0.001,0.001l0.151,0.173l0.274,0.73l-0.032,0.265l-0.034,0.14l-0.212,0.326l-0.07,0.17l-0.055,0.022l-0.04,0.062l-0.665,0.23l-0.666,-0.23l-0.039,-0.062l-0.055,-0.022l-0.061,-0.146l-0.134,-0.116l-0.064,-0.142l-0.117,-0.061l-0.602,-0.859l-0.948,-1.071l-0.002,-0.006l-0.006,-0.002l-1.407,-1.618l-0.005,-0.013l-0.01,-0.004l-1.764,-2.106l-0.006,-0.015l-0.011,-0.005l-1.973,-2.459l-0.01,-0.026l-0.018,-0.009l-2.251,-3.023l-0.005,-0.014l-0.009,-0.005l-2.525,-3.507l-2.737,-3.567l-0.01,-0.027l-0.017,-0.009l-2.938,-4.125l-3.501,-4.329l-0.004,-0.01l-0.007,-0.004l-3.659,-4.644l-0.005,-0.013l-0.009,-0.005l-3.581,-4.705l-3.853,-4.775l-0.007,-0.019l-0.013,-0.007l-3.72,-4.862l0,0l0,0l-3.518,-4.574l-0.003,-0.007l-0.004,-0.002l-3.518,-4.644l-0.003,-0.009l-0.006,-0.003l-3.224,-4.345l-3.36,-4.131l-0.007,-0.018l-0.013,-0.007l-3.067,-3.973l-3.277,-3.548l-0.001,-0.002l-0.002,-0.001l-3.098,-3.378l-0.02,-0.052l-0.041,-0.021l-2.463,-3.164l0,-0.001l-2.167,-2.725l-1.953,-2.311l-0.033,-0.089l-0.056,-0.031l-1.462,-2.257l-0.012,-0.039l-0.019,-0.011l-1.109,-1.904l-0.045,-0.163l-0.047,-0.033l-0.472,-1.337l-0.066,-0.375l0,-0.015l0.017,-1.265l0.006,-0.632l0,0l0,-0.012l0.006,-0.282l0,-0.001l0.001,-0.024l0.009,-0.213l0.218,-0.479l0.094,-0.225l0.011,-0.005l0.005,-0.012l0.738,-0.296l0.738,0.296z" fill="rgb(0%, 0%, 0%)"/>
   </g>
   <g id="svg_73" transform="matrix(0.9921,0,0,0.9921,793.57176189,553.8610559399999) ">
    <path id="svg_74" d="m-789.20092,-262.34238l5.865,5.256l0.031,0.069l0.065,0.03l1.644,1.948l0.004,0.01l0.008,0.004l1.932,2.365l0.01,0.029l0.02,0.01l2.138,2.862l0.008,0.022l0.014,0.007l2.264,3.226l0.004,0.011l0.006,0.003l2.544,3.72l0.012,0.037l0.019,0.011l2.606,4.217l0.024,0.082l0.034,0.021l2.404,4.915l0.001,0.006l0.002,0.001l2.612,5.338l0.015,0.067l0.021,0.014l2.4,5.902l0.008,0.039l0.01,0.007l2.263,6.182l0.002,0.011l0.002,0.002l2.262,6.253l0.006,0.034l0.01,0.014l1.975,6.114l0.004,0.025l0.006,0.009l1.767,5.902l0,0l1.817,5.497l2.03,4.943l0.009,0.046l0.017,0.023l1.613,4.601l1.742,3.953l0.006,0.027l0.008,0.005l1.319,3.171l1.369,2.463l0.001,0.003l0,0l0.939,1.675l0.67,0.854l0.438,0.448l0.001,0.002l0.001,0l0.248,0.255l0.225,0.093l0.004,0.009l0.009,0.005l0.353,0.869l-0.002,0.006l0,0.23l0.001,0.021l0.004,0.095l0,0.773l0.001,0.346l0.001,0.127l0.009,0.021l-0.001,0.002l-0.002,0.071l-0.016,0.284l-0.003,0.005l-0.003,0.063l-0.013,0.108l-0.01,0.17l-0.012,0.253l-0.009,0.466l-0.001,0.198l1.056,0l1.315,-0.007l1.734,-0.455l0.064,-0.008l0.017,-0.01l2.454,-0.496l0.092,-0.009l0.015,-0.008l2.854,-0.349l3.123,-0.555l0.137,-0.012l0.013,-0.006l3.234,-0.211l0.029,-0.001l0.002,-0.001l3.376,-0.149l0.037,-0.001l0.001,-0.001l3.588,-0.06l0.013,0l0,0l3.871,-0.032l0.008,0l0,0l4.294,-0.013l0.003,0l0,0l4.717,-0.004l0.001,0l0.037,0.001l5.282,0.14l0.001,0l0.013,0l5.465,0.209l5.675,-0.001l0,0l5.773,-0.002l5.984,0l0.001,0l6.101,0.006l5.999,-0.205l6.062,-0.476l5.944,-0.759l0.006,0l0,0l5.977,-0.765l5.604,-0.84l0.047,-0.004l0.007,-0.003l5.439,-0.624l4.935,-0.972l0.09,-0.009l0.015,-0.008l5.123,-0.631l4.967,-0.765l0.026,-0.002l0.004,-0.003l5.132,-0.703l0.022,-0.001l0.003,-0.002l5.132,-0.633l0.036,-0.002l0.004,-0.002l4.98,-0.492l4.827,-0.63l0.077,-0.005l0.007,-0.003l4.815,-0.349l4.596,-0.627l0.057,-0.004l0.007,-0.003l4.5,-0.424l0.024,-0.001l0.002,-0.001l4.501,-0.352l0.002,-0.001l4.359,-0.351l0.063,-0.003l0.003,-0.001l4.081,-0.145l0.004,0l0,0l4.14,-0.141l3.854,-0.211l0.078,-0.003l0,0l3.847,-0.001l3.985,-0.146l0.051,-0.001l0,0l3.59,-0.004l3.817,-0.007l3.599,-0.293l0,0l3.711,-0.355l0.139,-0.006l0,0l3.445,-0.001l3.296,-0.355l0.083,-0.005l0.005,-0.002l2.953,-0.147l0.01,0l0.001,0l3.104,-0.139l2.533,-0.343l0.198,-0.014l0,0l2.48,-0.001l2.262,-0.4l0.2,-0.018l0.01,-0.005l2.078,-0.069l1.716,-0.138l1.385,-0.139l0.002,0l1.327,-0.14l0.157,-0.009l0.914,0l0.931,-0.001l0.928,-0.071l0.101,-0.003l0.001,-0.001l0.707,-0.005l1.264,-0.254l0.149,-0.015l0.019,-0.009l1.614,-0.141l0.117,-0.005l0.001,-0.001l1.575,-0.012l2.063,-0.143l0.104,-0.004l0,0l2.232,-0.001l2.37,-0.071l0.045,0l2.535,0l2.463,-0.001l0,0l2.535,-0.001l0,0l2.464,-0.001l2.394,0l2.394,0.001l2.604,0.001l5.349,0l2.633,-0.006l2.628,-0.405l0.02,-0.001l0.003,-0.002l2.387,-0.343l0.009,-0.001l0.001,0l1.905,-0.271l1.333,-0.32l0.158,-0.02l0.027,-0.013l0.988,-0.112l0.493,-0.156l0.038,-0.006l0.014,-0.01l0.356,-0.101l0.009,-0.023l0.994,-0.421l0.032,0l0.019,-0.01l0.136,-0.009l0.092,-0.004l0.017,-0.007l0.013,0.005l0.013,0l0.678,-0.281l0.003,0l0.171,0l0.46,-0.14l0.141,0l0.007,0l0.137,0.001l0.031,0l0.102,-0.026l0.142,-0.017l0.199,-0.114l0.719,-0.192l0.008,0l0.077,0l0.043,-0.012l0.066,-0.049l0.251,-0.084l0.219,-0.15l0.483,-0.137l0.028,-0.004l0.01,-0.006l0.485,-0.128l0.372,-0.049l0.029,0l0.183,0.004l0.562,-0.128l0.021,0l0.358,0.005l0.155,-0.028l0.416,-0.117l0.388,-0.055l0.298,0l0.285,-0.081l0.588,-0.196l0.448,-0.074l0.014,0l0.27,0.003l0.203,-0.065l0.428,-0.068l0.015,0l0.493,0.006l0,0l0.07,0l0,0l0.419,0.005l0.135,0l0.35,0.001l0,0l0.011,0l0.134,0.002l0.283,0l0.328,-0.137l0,-0.049l0,-0.491l0.275,-0.664l-0.004,-0.125l-0.006,-0.013l-0.004,-0.138l-0.001,-0.019l0,-0.001l-0.006,-0.35l0,0l-0.006,-0.276l-0.006,-0.203l0,-0.041l0,-0.415l-0.006,-0.555l0,-0.016l0,-0.774l0,-0.042l0.015,-0.494l0,0l0,-0.005l0.022,-0.635l0.001,-0.002l0.001,-0.036l0.023,-0.355l0.004,-0.008l0.006,-0.089l0.021,-0.146l0.271,-0.495l0.101,-0.245l0.042,-0.017l0.025,-0.045l0.866,-0.324l0.867,0.324l0.024,0.044l0.042,0.018l0.105,0.254l0.268,0.494l0.019,0.13l0.007,0.101l0.004,0.008l0.023,0.347l0.001,0.043l0.001,0.001l0.022,0.631l0,0.009l0,0l0.015,0.49l0,0.044l0,0.774l0,0.015l-0.005,0.556l0,0.415l-0.001,0.039l-0.006,0.207l-0.005,0.277l-0.007,0.349l0,0l0,0.016l-0.005,0.142l-0.005,0.013l-0.007,0.203l-0.002,0.004l0,0.093l-0.001,0.28l-0.282,0.678l0,0.02l0,0.278l0.002,0.279l0.001,0.21l0,0.01l-0.395,0.957l-0.031,0.03l-0.028,0.065l-0.091,0.107l-0.187,0.451l-0.976,0.405l-0.027,-0.012l-0.122,0l-0.001,-0.001l-0.28,-0.001l0,0l-0.007,0l-0.063,-0.001l-0.134,0l-0.006,0l-0.149,-0.001l-0.338,0.14l-0.485,0l-0.133,0.002l-0.013,0l0,0l-0.349,0l-0.136,0.001l-0.418,0.005l0,0l0,0l-0.07,0l-0.001,0l0,0l-0.266,0.003l-0.198,0.069l-0.441,0.076l-0.01,0.004l-0.273,0.003l-0.417,0.139l-0.048,0.008l-0.019,0.013l-0.482,0.139l-0.394,0.057l-0.296,0l-0.294,0.085l-0.073,0.01l-0.022,0.014l-0.341,0.076l-0.284,0.032l-0.007,0.003l-0.187,0.002l-0.54,0.135l-0.039,0.017l-0.292,0.006l-0.289,0.09l-0.028,0.004l-0.01,0.007l-0.237,0.068l-0.066,0.049l-0.249,0.084l-0.222,0.152l-0.482,0.139l-0.268,0.038l-0.191,0.11l-0.695,0.187l-0.018,0.007l-0.036,0l-0.103,0.027l-0.363,0.046l-0.106,0l0,0.001l-1.021,0.423l-0.49,0l-0.001,0l-0.106,0.084l-0.342,0.138l-0.102,0.02l-0.045,0.031l-0.459,0.132l-0.578,0.202l-0.231,0.04l-0.056,0.03l-1.041,0.143l-1.311,0.342l-0.14,0.018l-0.03,0.016l-1.963,0.282l-0.002,0.001l-2.38,0.358l-0.003,0l0,0l-2.738,0.421l-0.231,0.019l-0.004,0l-2.743,-0.007l-5.349,0l-2.604,0.001l0,0l-2.394,0l-2.394,0l-2.464,0l0,0l-2.535,-0.001l-2.464,-0.001l-2.512,0l-2.371,0.069l-0.044,0.001l-0.001,0l-2.206,-0.002l-2.06,0.133l-0.098,0.003l-0.012,0l-1.55,-0.013l-1.473,0.129l-1.321,0.263l-0.29,0.03l-0.012,0l-0.791,-0.007l-0.928,0.063l-0.1,0.003l-0.002,0l-0.984,-0.001l-0.84,0l-1.257,0.131l-0.012,0.001l-0.001,0.001l-1.402,0.14l-0.032,0.001l-0.003,0.002l-1.755,0.14l-0.068,0.002l-0.003,0.002l-2.011,0.067l-2.286,0.403l-0.256,0.023l0,0l-2.509,-0.002l-2.503,0.338l-0.127,0.008l-0.007,0.004l-3.165,0.14l-0.001,0l-2.919,0.133l-3.335,0.336l-0.147,0.008l0,0l-3.455,-0.001l-3.661,0.341l-0.031,0.002l-0.003,0.001l-3.658,0.264l-0.104,0.004l-0.002,0l-3.872,-0.006l-3.566,-0.005l-3.987,0.134l-0.048,0.001l0,0l-3.835,-0.001l-3.831,0.208l-0.031,0.001l-0.001,0l-4.151,0.14l-0.003,0.001l0,0l-4.052,0.135l-4.327,0.349l-0.008,0l-0.001,0.001l-4.499,0.35l-4.465,0.418l-4.608,0.628l-0.085,0.006l-0.008,0.004l-4.819,0.349l-4.812,0.628l-0.044,0.003l-0.005,0.003l-4.986,0.49l-5.112,0.631l-0.001,0l-5.119,0.701l-0.001,0l-4.972,0.775l-0.044,0.004l-0.006,0.003l-5.092,0.629l-4.94,0.975l-0.099,0.01l-0.016,0.008l-5.472,0.636l-5.598,0.841l-0.029,0.002l-0.004,0.002l-5.976,0.782l-0.006,0.001l-0.001,0l-5.975,0.784l-0.066,0.004l-0.007,0.004l-6.119,0.505l-0.067,0.002l-0.003,0.002l-6.052,0.215l-0.051,0.001l0,0l-6.125,0.006l-0.001,0l-5.984,0l0,0l-5.773,-0.002l-5.702,-0.001l0,0l-0.054,-0.001l-5.485,-0.212l-5.252,-0.141l-4.698,-0.004l0,0l-0.003,0l-4.294,-0.013l0,0l-0.008,0l-3.872,-0.032l0,0l-0.011,0l-3.553,-0.06l-3.327,0.13l-3.151,0.206l-3.089,0.549l-0.067,0.006l-0.01,0.006l-2.841,0.346l-2.385,0.473l-1.855,0.477l-0.326,0.041l-0.006,0l-1.476,-0.007l-1.117,0l-0.748,0.007l-0.185,0.008l-0.129,0.007l-0.068,0.002l-0.002,0l-0.913,-0.378l-0.379,-0.913l0.087,-0.21l0,-0.006l0.001,0l0,-0.033l0.004,-0.142l0.001,-0.001l0,-0.016l0.006,-0.115l0,-0.253l0,-0.347l-0.001,-0.138l0,-0.002l0,0l0,-0.202l-0.009,-0.467l-0.012,-0.256l-0.011,-0.168l-0.012,-0.101l-0.004,-0.071l-0.002,-0.006l-0.016,-0.277l-0.002,-0.074l-0.001,-0.002l0.009,-0.021l0.001,-0.127l0.001,-0.346l0,-0.457l-0.12,-0.117l-0.001,-0.001l-0.001,-0.001l-0.498,-0.487l-0.037,-0.087l-0.073,-0.035l-0.773,-0.983l-0.045,-0.128l-0.067,-0.039l-0.982,-1.754l-0.003,-0.008l-0.003,-0.002l-1.405,-2.528l-0.03,-0.116l-0.038,-0.025l-1.326,-3.233l0,-0.001l-1.742,-3.99l-0.013,-0.065l-0.025,-0.034l-1.603,-4.623l-2.015,-4.959l-0.012,-0.06l-0.02,-0.028l-1.821,-5.555l-0.005,-0.031l-0.008,-0.012l-1.749,-5.907l0,-0.001l-1.956,-6.098l-2.229,-6.234l0,-0.004l-0.001,-0.001l-2.235,-6.187l-2.36,-5.856l-2.573,-5.309l-0.001,-0.007l-0.003,-0.002l-2.355,-4.883l-2.559,-4.157l-2.504,-3.713l0,0l-2.232,-3.238l-2.065,-2.88l-1.85,-2.398l-1.537,-1.923l-5.763,-5.251l-0.009,-0.021l-0.023,-0.009l-0.283,-0.684l0.283,-0.684l0.684,-0.283l0.646,0.247z" fill="rgb(0%, 0%, 0%)"/>
    <g id="svg_75" transform="matrix(1,0,0,1,169.125,-78.5) ">
     <path id="svg_76" d="m-789.04892,-262.42038l0.331,0.798l-0.331,0.798l-0.018,0.008l-0.008,0.018l-1.457,1.365l-0.221,0.422l-0.31,0.753l-0.043,0.817l0.009,1.088l0,0.011l-0.004,0.098l-0.127,1.568l0.01,1.776l0,0.002l0,0l0.009,2.253l0,0.003l0,0l0.006,2.745l0,0.003l0,3.168l0,0.002l-0.006,3.57l0.127,4.106l0.339,4.466l0.489,4.835l0.001,0.02l0.001,0.002l0.493,5.627l0,0.01l0.001,0.001l0.503,6.119l0.001,0.02l0.001,0.001l0.497,7.242l0.773,8.845l1.124,10.114l0.001,0.001l1.265,10.334l0,0.002l1.258,9.619l1.459,8.557l0.002,0.024l0.003,0.005l1.12,7.382l1.326,7.363l0.001,0.013l0.001,0.003l1.12,6.47l0.002,0.013l0.001,0.002l0.9,5.416l0.002,0.02l0.002,0.004l0.678,4.467l0.894,3.892l0.01,0.082l0.009,0.016l0.702,4.779l0.892,5.187l0.002,0.018l0.002,0.003l0.971,6.121l0,0.007l0.001,0.001l0.902,5.769l0.005,0.06l0.004,0.007l0.561,5.628l0,0.002l0,0l0.559,5.487l0.001,0.036l0.002,0.003l0.352,4.995l0.001,0.046l0.001,0.002l0.145,4.856l0.001,0.034l0,0l0.001,4.153l0.006,3.378l0,0.002l0,0l0.002,2.886l0,0l0,2.324l0.001,1.689l0.001,0.978l0.008,0.625l0.001,0.015l0,0l0,0.633l0.002,0.704l0,0.002l0,0.915l-0.009,0.141l-0.141,1.132l-0.01,0.018l-0.011,0.096l-0.252,1.069l-0.001,1.487l0,0l0,0.004l-0.007,1.759l-0.002,1.546l0,1.616l0.007,1.476l0,0.001l0,0l0.005,1.266l0,0.005l0,0l0.001,1.194l0.005,1.124l0.006,1.125l0,0l0.008,1.266l0,0.004l0,0l0.005,1.408l0,0.003l0,0l0.001,1.476l0.008,1.405l0,0.006l0,1.126l0,1.126l0,0.001l0,1.479l0,0.024l-0.004,0.202l-0.001,0.132l-0.233,0.557l-0.107,0.258l-0.002,0.001l0,0.001l-0.82,0.338l-0.819,-0.338l-0.001,-0.001l-0.001,-0.001l-0.111,-0.268l-0.23,-0.547l0,-0.132l-0.005,-0.201l0,-0.025l0,-1.479l0,-0.001l0.001,-1.126l0,-1.126l0,-0.006l0.007,-1.405l0.002,-1.476l0,0l0,-0.003l0.004,-1.408l0,0l0,-0.003l0.008,-1.268l0,0l0.007,-1.125l0.005,-1.123l0.001,-1.194l0,0l0,-0.004l0.005,-1.268l0,0l0,0l0.006,-1.476l0,-1.616l-0.002,-1.546l-0.007,-1.759l0,-0.004l0,0l0,-1.619l0,0l0.03,-0.259l0.267,-1.14l0.124,-0.996l0,-0.844l0,-0.002l0.002,-0.704l0.001,-0.633l0,0l0,-0.014l0.008,-0.626l0.001,-0.978l0.001,-1.69l0.001,-2.323l0,0l0.001,-2.886l0,0l0,-0.002l0.006,-3.378l0.001,-4.137l-0.135,-4.819l-0.349,-4.958l-0.565,-5.466l-0.001,-0.008l0,-0.001l-0.562,-5.6l-0.921,-5.73l0,-0.004l0,0l-0.999,-6.116l0,-0.001l-0.93,-5.187l-0.004,-0.036l-0.003,-0.007l-0.698,-4.74l-0.912,-3.883l-0.008,-0.074l-0.009,-0.016l-0.723,-4.495l0,-0.002l-0.927,-5.404l0,-0.003l0,-0.001l-1.13,-6.468l-0.001,-0.002l-1.342,-7.38l-0.003,-0.035l-0.004,-0.006l-1.13,-7.385l0,0l-1.488,-8.561l-0.004,-0.049l-0.005,-0.008l-1.272,-9.638l-0.001,-0.016l-0.001,-0.002l-1.267,-10.342l-0.001,-0.018l-0.001,-0.002l-1.125,-10.132l-0.002,-0.031l-0.002,-0.004l-0.773,-8.865l-0.001,-0.027l-0.001,-0.003l-0.488,-7.247l0,0l-0.48,-6.111l0,-0.001l-0.492,-5.62l0,0l-0.493,-4.84l-0.001,-0.028l-0.002,-0.003l-0.361,-4.5l-0.003,-0.056l-0.001,-0.002l-0.152,-4.151l-0.001,-0.046l0,0l-0.006,-3.59l0,-0.002l0,-3.168l0,-0.002l0.005,-2.746l0,0l0,-0.003l0.01,-2.253l0,0l0,-0.001l0.01,-1.831l0,-0.001l0.005,-0.105l0.146,-1.568l0.009,-1.075l0,-0.001l0.003,-0.084l0.085,-1.06l0.03,-0.062l0.069,-0.324l0.44,-0.986l0.034,-0.021l0.023,-0.088l0.37,-0.63l0.139,-0.079l0.087,-0.194l1.636,-1.456l0.752,-0.287l0.798,0.331z" fill="rgb(0%, 0%, 0%)"/>
    </g>
    <g id="svg_77" transform="matrix(1,0,0,1,178.5,61.625) ">
     <path id="svg_78" d="m-830.01492,-268.48138l0.013,0.032l0.264,0.06l0.023,0.015l0.065,0.011l0.575,0.192l0.02,0.027l0.099,0.025l0.497,0.264l0.275,0.46l-0.278,0.462l-0.49,0.26l-0.108,0.028l-0.02,0.028l-0.563,0.189l-0.076,0.012l-0.026,0.017l-0.257,0.059l-0.013,0.031l-0.11,0.046l-0.153,0.323l-0.042,0.017l-0.008,0.01l-0.014,0.029l-0.018,0.016l-0.299,0.537l-0.027,0.016l-0.017,0.057l-0.5,0.778l-0.05,0.027l-0.028,0.081l-0.682,0.867l-0.641,1.283l-0.121,0.074l-0.088,0.233l-0.982,1.112l-1.069,1.67l0,0l-1.191,1.891l-0.011,0.006l-0.006,0.02l-1.271,1.906l-0.017,0.009l-0.009,0.029l-1.594,2.216l-1.742,2.778l0,0l-1.901,3.028l-0.001,0l0,0.002l-1.972,3.098l-2.004,3.248l-1.588,3.039l-1.463,3.011l-0.012,0.013l-0.004,0.019l-1.462,2.785l-1.225,2.682l-1.111,2.787l-0.015,0.019l-0.006,0.03l-1.254,2.788l-1.115,2.856l-0.012,0.016l-0.006,0.027l-1.201,2.755l-0.001,0l-1.123,2.658l0,0l-1.048,2.585l-0.018,0.023l-0.008,0.037l-0.973,2.084l-0.693,1.703l-0.122,0.774l0.598,-0.435l0.061,-0.02l0.019,-0.035l1.179,-0.755l1.378,-0.959l0.006,-0.002l0.002,-0.004l1.826,-1.263l0.014,-0.004l0.004,-0.008l2.155,-1.459l1.936,-1.452l0.033,-0.011l0.011,-0.02l2.073,-1.452l2.07,-1.656l0.186,-0.065l0.057,-0.094l2.473,-1.305l2.184,-1.434l0.067,-0.019l0.018,-0.033l2.419,-1.382l2.344,-1.577l0.082,-0.025l0.023,-0.039l2.577,-1.457l2.465,-1.568l2.557,-1.857l2.713,-2.075l2.493,-2.062l2.366,-2.156l0.025,-0.01l0.01,-0.021l2.437,-2.089l2.361,-2.233l0.027,-0.011l0.011,-0.024l2.368,-2.09l2.157,-2.088l0.036,-0.015l0.014,-0.031l2.393,-2.111l0.002,-0.001l0.001,-0.002l2.39,-2.102l2.219,-2.01l2.235,-2.222l0.053,-0.022l0.022,-0.047l2.105,-1.818l2.1,-1.888l0.023,-0.009l0.008,-0.018l1.899,-1.617l0,0l1.611,-1.392l1.332,-1.184l0.068,-0.026l0.025,-0.051l1.405,-1.053l0.023,-0.008l0.007,-0.014l0.967,-0.691l0.519,-0.399l0.426,-0.461l0.167,-0.072l0.377,-0.292l0.492,-0.183l0.492,-0.09l0.979,0.406l0.406,0.979l-0.406,0.98l-0.278,0.115l-0.093,0.15l-0.208,0.102l-0.284,0.343l-0.148,0.069l-0.068,0.141l-0.628,0.494l-0.042,0.015l-0.014,0.027l-0.976,0.697l-1.34,1.006l-1.284,1.156l-0.012,0.005l-0.005,0.01l-1.613,1.411l-0.011,0.005l-0.005,0.009l-1.885,1.607l-2.095,1.887l-0.014,0.006l-0.006,0.012l-2.069,1.8l-2.209,2.222l-0.038,0.016l-0.017,0.036l-2.251,2.041l-0.01,0.004l-0.004,0.009l-2.389,2.115l-0.002,0l-0.001,0.002l-2.368,2.09l-2.158,2.088l-0.036,0.015l-0.014,0.032l-2.378,2.097l-2.382,2.231l-0.035,0.013l-0.014,0.03l-2.447,2.098l-2.375,2.166l-0.033,0.013l-0.013,0.028l-2.524,2.119l-0.036,0.013l-0.012,0.026l-2.737,2.117l-0.025,0.009l-0.009,0.017l-2.596,1.904l-0.061,0.02l-0.019,0.035l-2.525,1.621l-0.058,0.017l-0.016,0.028l-2.552,1.454l-2.332,1.588l-0.082,0.025l-0.024,0.041l-2.427,1.387l-2.205,1.447l-0.101,0.03l-0.028,0.046l-2.408,1.272l-1.996,1.597l-0.06,0.022l-0.021,0.039l-2.094,1.466l-1.944,1.459l-0.048,0.016l-0.015,0.029l-2.177,1.476l0,0l-1.818,1.259l0,0l-1.396,0.983l-0.036,0.011l-0.011,0.021l-1.159,0.758l-1.012,0.748l-0.167,0.055l-0.158,0.129l-0.354,0.148l-0.099,0.177l-0.051,0.03l-0.032,0.101l-0.728,0.555l-0.201,0.073l-0.022,0.054l-1.073,0.445l-1.073,-0.445l-0.445,-1.073l0.016,-0.051l-0.003,-0.202l0,0l-0.002,-0.066l0,-0.033l0,-0.141l0.001,-0.047l0.004,-0.136l0.011,-0.47l0.002,-0.758l0,0l0,-0.007l0.006,-0.986l0.001,-0.002l0.017,-0.219l0.214,-1.346l0.042,-0.076l0.048,-0.243l0.778,-1.91l0.018,-0.022l0.008,-0.036l0.971,-2.083l1.043,-2.574l0.003,-0.003l0,-0.003l1.126,-2.687l0.004,-0.004l0.001,-0.005l1.187,-2.727l1.116,-2.862l0.018,-0.022l0.008,-0.038l1.258,-2.795l1.119,-2.789l0.02,-0.024l0.009,-0.04l1.28,-2.75l0.02,-0.022l0.008,-0.032l1.474,-2.806l1.475,-3.006l0.009,-0.01l0.004,-0.015l1.623,-3.105l0.029,-0.018l0.018,-0.065l2.046,-3.315l0.004,-0.002l0.003,-0.009l1.974,-3.103l0.001,0l1.896,-3.02l0,0l1.752,-2.814l0.032,-0.018l0.019,-0.057l1.605,-2.234l1.243,-1.866l1.188,-1.886l0.001,-0.001l0.001,-0.002l1.129,-1.766l0.084,-0.045l0.048,-0.129l0.929,-1.054l0.622,-1.245l0.09,-0.055l0.065,-0.187l0.727,-0.926l0.427,-0.68l0.334,-0.603l0.007,-0.003l0.003,-0.013l0.131,-0.226l0.088,-0.051l0.055,-0.153l0.025,-0.029l0.183,-0.443l0.136,-0.056l0.053,-0.104l0.202,-0.145l0.883,-0.286l0.016,-0.007l1.086,0.45z" fill="rgb(0%, 0%, 0%)"/>
    </g>
    <g id="svg_79" transform="matrix(1,0,0,1,184.75,58) ">
     <path id="svg_80" d="m-727.77792,-264.25238l0.058,0.089l0.079,0.033l0.106,0.255l0.076,0.118l0.077,0.044l0.159,0.261l0,0.001l0.292,0.472l0.033,0.118l0.076,0.09l0.179,0.407l0.44,0.754l0.008,0.028l0.02,0.021l0.367,0.675l0.768,1.031l0.033,0.099l0.093,0.097l0.721,1.319l1.268,1.742l0.015,0.048l0.029,0.015l1.398,2.11l0.007,0.024l0.013,0.007l1.746,2.746l0,0l2.087,3.149l0.001,0.002l0.001,0l2.39,3.585l0.008,0.026l0.013,0.007l2.462,3.865l0.002,0.007l0.003,0.002l2.538,4.002l0.009,0.031l0.015,0.009l2.299,3.83l2.644,3.818l0.019,0.06l0.032,0.018l2.248,3.654l0.007,0.025l0.012,0.006l1.808,3.058l1.728,2.555l0.028,0.089l0.044,0.026l1.267,2.239l1.118,1.861l0.017,0.061l0.042,0.046l0.64,1.254l0.674,0.845l0.263,0.748l0.1,0.222l0.025,0.628l0.016,0.337l0.001,0.053l0.013,0.032l-0.5,1.207l-1.207,0.5l-0.484,-0.2l-0.104,-0.02l-0.051,-0.02l-0.448,0.01l-0.039,0l-0.243,-0.018l-1.348,-0.204l-0.001,-0.001l-0.003,0l-1.767,-0.283l-2.375,-0.35l-0.033,-0.018l-0.143,-0.019l-2.837,-0.762l-3.188,-0.624l-0.047,-0.028l-0.147,-0.024l-3.389,-1.134l0,-0.001l-3.711,-1.19l-0.021,-0.015l-0.042,-0.008l-4.161,-1.562l-0.002,-0.002l-0.003,0l-4.228,-1.638l-0.005,-0.003l-0.005,-0.002l-4.375,-1.764l-0.041,-0.033l-0.065,-0.016l-4.514,-2.257l-0.019,-0.017l-0.024,-0.006l-4.514,-2.468l-0.016,-0.016l-0.021,-0.006l-4.301,-2.538l-0.012,-0.021l-0.041,-0.012l-4.227,-2.754l-0.014,-0.026l-0.045,-0.015l-4.082,-2.957l-4.28,-3.027l-0.015,-0.03l-0.046,-0.016l-3.863,-3.045l-0.015,-0.032l-0.041,-0.015l-3.534,-3.084l-3.568,-2.709l-3.341,-2.239l-0.011,-0.02l-0.033,-0.011l-3.011,-2.199l-2.942,-1.578l-0.024,-0.041l-0.085,-0.025l-2.428,-1.607l-2.497,-1.467l-2.232,-1.269l-0.016,-0.028l-0.056,-0.016l-1.965,-1.288l-0.027,-0.05l-0.081,-0.029l-1.603,-1.292l-0.018,-0.038l-0.048,-0.018l-1.093,-1.004l-0.868,-0.767l-0.603,-0.49l-0.146,-0.307l-0.199,-0.123l-0.322,-0.64l-0.141,-0.587l0.378,-0.912l0.913,-0.378l0.913,0.378l0.072,0.174l0.116,0.065l0.245,0.4l0.442,0.329l0.01,0.021l0.029,0.01l0.934,0.756l0.004,0.007l0.01,0.004l1.125,0.939l1.561,1.186l1.898,1.197l2.229,1.24l0.003,0.005l0.011,0.003l2.546,1.474l0.014,0.024l0.046,0.014l2.416,1.576l2.978,1.587l0.037,0.062l0.128,0.042l3.079,2.23l3.362,2.23l0.014,0.027l0.044,0.014l3.681,2.727l0.021,0.041l0.057,0.021l3.581,3.054l3.827,2.967l4.272,3.002l0.003,0.006l0.01,0.003l4.053,2.933l4.166,2.702l4.246,2.505l4.457,2.438l4.42,2.208l4.304,1.735l4.208,1.595l0.001,0.001l4.108,1.52l3.7,1.186l0.002,0.002l0.003,0l3.285,1.09l3.145,0.614l0.022,0.014l0.075,0.01l2.799,0.749l2.306,0.338l0.003,0.001l0.009,0.001l1.336,0.214l-0.287,-0.586l-1.079,-1.845l-0.006,-0.02l-0.014,-0.014l-1.23,-2.2l-1.715,-2.541l-0.021,-0.068l-0.035,-0.02l-1.825,-3.09l-0.001,-0.001l-2.221,-3.61l-2.643,-3.831l-0.022,-0.07l-0.036,-0.021l-2.319,-3.865l0,0l-2.509,-3.989l-0.001,-0.001l-2.457,-3.864l-2.376,-3.563l-0.001,-0.002l0,-0.001l-2.117,-3.156l-0.007,-0.022l-0.012,-0.007l-1.766,-2.733l0,0l-1.385,-2.065l-1.316,-1.793l-0.03,-0.091l-0.085,-0.088l-0.723,-1.306l-0.775,-1.025l-0.035,-0.104l-0.099,-0.102l-0.417,-0.763l-0.087,-0.149l-0.547,-0.424l-0.203,-0.785l-0.015,-0.118l-0.012,-0.023l-0.026,-0.201l-0.088,-0.165l-0.024,-0.098l-0.05,-0.062l-0.113,-0.281l-0.119,-0.603l0.046,-0.38l0.035,-0.144l0.307,-0.471l0.101,-0.246l0.08,-0.033l0.058,-0.089l0.962,-0.334l0.963,0.334z" fill="rgb(0%, 0%, 0%)"/>
    </g>
    <g id="svg_81" transform="matrix(1,0,0,1,205.125,123) ">
     <path id="svg_82" d="m-789.43892,-262.51538l0.296,-0.097l0.755,0.248l0.065,0.092l0.079,0.032l0.077,0.185l0.237,0.331l0.058,0.183l0.04,0.259l0.019,0.039l0.054,0.623l0.004,0.084l0.001,0.003l0.026,0.983l0.001,0.021l0,0l0.017,1.266l0,0.02l-0.004,0.099l-0.132,1.906l-0.011,0.023l-0.022,0.198l-0.487,2.107l-0.488,2.374l0,0.001l-0.474,2.303l-0.204,2.382l-0.011,0.022l-0.018,0.163l-0.409,1.838l-0.224,1.765l-0.007,0.013l-0.006,0.07l-0.29,1.511l-0.043,1.16l-0.001,0.002l-0.002,0.049l-0.076,0.984l-0.033,0.067l-0.077,0.356l-0.33,0.729l-0.023,0.014l-0.015,0.06l-0.304,0.55l-0.096,0.056l-0.063,0.153l-0.681,0.282l-0.657,-0.259l-0.007,-0.016l-0.016,-0.007l-0.085,-0.204l-0.194,-0.41l-0.043,-0.618l-0.003,-0.081l0.007,-0.123l0.072,-0.671l-0.067,-0.858l-0.002,-0.055l-0.001,-0.003l-0.047,-1.263l-0.001,-0.055l0.016,-0.215l0.248,-1.591l0.188,-1.799l0.011,-0.022l0.015,-0.135l0.401,-1.809l0.203,-2.372l0.009,-0.019l0.015,-0.144l0.494,-2.403l0.001,0l0.493,-2.394l0.004,-0.007l0.003,-0.022l0.472,-2.006l0.137,-1.743l0.016,-1.22l0,0l0.001,-0.018l0.026,-0.987l0.001,-0.003l0.004,-0.076l0.024,-0.284l-0.048,-0.02l-0.292,-0.704l0.292,-0.704l0.704,-0.292l0.408,0.103z" fill="rgb(0%, 0%, 0%)"/>
    </g>
    <g id="svg_83" transform="matrix(1,0,0,1,205,120.625) ">
     <path id="svg_84" d="m-778.63892,-262.56138l0.002,0.003l0.003,0.002l0.135,0.326l0.281,0.666l0.009,1.055l0,0.005l0,0l0.012,1.971l0,0.003l0,0l0.011,3.027l0,0.006l-0.008,0.154l-0.345,3.245l-0.003,0.006l-0.003,0.034l-0.465,3.348l0.017,3.412l0,0.009l-0.008,0.16l-0.333,3.088l0.004,2.522l0,0.002l0,0l0.001,1.83l0,0.001l0,0l0,1.126l-0.001,0.044l-0.018,0.635l-0.002,0.004l-0.006,0.108l-0.045,0.424l-0.297,0.58l-0.117,0.282l-0.035,0.015l-0.019,0.036l-0.967,0.372l0,0l0,0l-0.967,-0.372l-0.018,-0.036l-0.036,-0.015l-0.121,-0.292l-0.294,-0.576l-0.043,-0.411l-0.007,-0.117l-0.002,-0.004l-0.018,-0.631l-0.001,-0.046l0,-1.126l0,-0.001l0.001,-1.83l0,0l0,-0.002l0.005,-2.605l0,-0.001l0.009,-0.167l0.353,-3.087l0.018,-3.438l0.001,-0.002l0.015,-0.204l0.502,-3.427l0.114,-1.032l-0.046,0.086l0,0.001l0,0l-0.872,1.613l-0.034,0.02l-0.021,0.071l-0.876,1.324l-0.062,0.033l-0.036,0.095l-0.921,1.055l-0.515,0.701l-0.072,0.036l-0.038,0.091l-0.805,0.333l-0.164,-0.012l-0.488,-0.071l-0.001,0l-0.002,0l-0.487,-0.075l-0.004,-0.002l-0.019,-0.002l-0.346,-0.063l-0.192,-0.113l-0.217,-0.077l-0.516,-0.414l-0.104,-0.22l-0.132,-0.084l-0.4,-0.863l-0.614,-0.8l-0.063,-0.183l-0.055,-0.041l-0.459,-1.408l-0.599,-1.607l-0.045,-0.242l0,-0.003l0.026,-7.321l0.657,-0.655l0.657,0.655l0.025,7.188l0.608,1.48l0.004,0.022l0.006,0.003l0.473,1.265l0.641,0.709l0.032,0.084l0.054,0.03l0.413,0.667l0.099,0.047l0.041,-0.008l0.029,-0.003l0.006,-0.003l0.408,-0.062l0.17,-0.311l0.056,-0.034l0.037,-0.11l0.835,-1.105l0.758,-1.258l0.801,-1.593l0.002,-0.001l0,-0.003l0.764,-1.482l0.725,-1.481l0.467,-1.22l0.028,-0.036l0.014,-0.059l0.334,-0.693l-0.015,-0.51l-0.001,-0.043l0.101,-0.517l0.205,-0.51l0.007,-0.036l0.003,-0.358l0.286,-0.677l0.13,-0.314l0.003,-0.002l0.002,-0.003l1,-0.412l1,0.412z" fill="rgb(0%, 0%, 0%)"/>
    </g>
    <g id="svg_85" transform="matrix(1,0,0,1,215.375,143.125) ">
     <path id="svg_86" d="m-778.17192,-279.42238l0.071,0.171l0.122,0.065l0.392,0.6l0.05,0.169l0.103,0.132l0.524,1.384l0.016,0.085l0.025,0.036l0.579,1.955l0.039,0.266l0.021,0.043l0.23,2.385l0.002,0.043l0.002,0.004l0.159,2.246l0.004,0.111l0.001,0l0.014,2.605l0,0.001l0,0l0.008,1.901l0,0.008l0,3.59l0,0.031l-0.021,1.128l-0.004,0.01l-0.034,0.307l-0.201,0.913l-0.478,0.767l-0.038,0.082l-0.295,0.249l-0.928,0.341l-1.014,-0.42l-0.42,-1.014l0.032,-0.302l0.062,-0.287l0.065,-0.736l-0.02,-1.036l0,-0.033l0,-3.59l0,-0.008l0.009,-1.901l0,0l0,-0.001l0.014,-2.556l-0.119,-2.187l-0.178,-2.223l-0.499,-1.806l-0.262,-0.815l-0.631,0.573l-0.814,0.909l-1.087,1.291l-1.203,1.671l-1.271,2.278l-3.637,8.813l-0.132,0.088l-0.116,0.281l-0.817,0.338l-0.817,-0.338l-0.338,-0.817l0.087,-0.441l3.664,-8.878l0.032,-0.021l0.025,-0.094l1.341,-2.399l0.042,-0.024l0.026,-0.081l1.269,-1.763l0.034,-0.018l0.018,-0.048l1.123,-1.333l0.819,-0.999l0.025,-0.012l0.012,-0.031l0.715,-0.786l0.421,-0.514l0.14,-0.066l0.065,-0.133l0.24,-0.188l0.431,-0.149l0.259,-0.133l0.45,-0.051l0.293,-0.049l0.254,-0.022l1.045,0.433z" fill="rgb(0%, 0%, 0%)"/>
    </g>
    <g id="svg_87" transform="matrix(1,0,0,1,215.375,143.125) ">
     <path id="svg_88" d="m-789.20192,-262.26738l0.267,0.645l-0.267,0.645l-0.645,0.267l-0.645,-0.267l-0.267,-0.645l0.267,-0.645l0.645,-0.267l0.645,0.267z" fill="rgb(0%, 0%, 0%)"/>
    </g>
    <g id="svg_89" transform="matrix(1,0,0,1,215.375,143.125) ">
     <path id="svg_90" d="m-773.86592,-274.07238l0.154,0.01l0.619,0.081l0.015,0.008l0.073,0.008l0.743,0.168l0.069,0.087l0.345,0.143l0.253,0.611l-0.253,0.61l-0.352,0.146l-0.068,0.086l-0.673,0.152l-0.509,0.187l-0.008,0.001l-0.001,0.002l-1.018,0.373l-1.08,0.538l-0.071,0.017l-0.043,0.033l-1.375,0.549l-0.001,0l-1.599,0.651l-0.068,0.014l-0.032,0.023l-1.891,0.631l-0.024,0.004l-0.01,0.006l-1.964,0.619l-0.018,0.003l-0.006,0.004l-1.97,0.6l-0.134,0.021l-0.037,0.021l-1.489,0.273l-0.975,0.398l-1.685,2.096l0.014,3.272l0,0.004l-0.267,0.645l-0.645,0.267l-0.624,-0.246l-0.286,-0.606l-0.225,-3.403l-0.278,-0.67l0.25,-0.756l1.854,-2.505l0.336,-0.168l0.143,-0.23l1.376,-0.679l0.191,-0.046l0.091,-0.059l1.554,-0.393l1.893,-0.641l0.017,-0.003l0.006,-0.005l1.957,-0.642l0.004,0l0,-0.001l1.883,-0.628l1.582,-0.595l0.071,-0.013l0.03,-0.021l1.417,-0.429l0.001,0l1.191,-0.395l0.193,-0.031l0.045,-0.025l1.137,-0.16l0.172,-0.012z" fill="rgb(0%, 0%, 0%)"/>
    </g>
    <g id="svg_91" transform="matrix(1,0,0,1,236.4526,123.7542) ">
     <path id="svg_92" d="m-788.79392,-262.99238l0.019,0.037l0.036,0.015l0.132,0.32l0.319,0.632l0.027,0.271l0.008,0.15l0,0.002l0.006,0.698l0,0.012l0,0l0.002,1.119l0,0.003l-0.014,0.206l-0.2,1.548l-0.001,0.001l0,0.005l-0.273,1.968l-0.011,0.022l-0.012,0.1l-0.469,2.102l-0.263,2.017l-0.208,1.871l-0.01,0.019l-0.011,0.114l-0.32,1.602l-0.015,1.107l-0.003,0.009l-0.047,0.37l-0.322,1.26l-0.013,0.02l-0.008,0.052l-0.18,0.572l-0.103,0.648l-0.02,0.035l-0.019,0.134l-0.175,0.587l-0.226,0.322l-0.072,0.173l-0.07,0.029l-0.058,0.082l-0.717,0.239l-0.718,-0.239l-0.057,-0.082l-0.071,-0.029l-0.074,-0.179l-0.226,-0.325l-0.17,-0.568l-0.022,-0.151l-0.021,-0.036l-0.118,-0.742l-0.02,-0.244l0.006,-0.133l0.064,-0.713l0.009,-0.017l0.012,-0.128l0.209,-1.109l-0.014,-1.095l0,-0.022l0,0l0.032,-0.32l0.336,-1.683l0.202,-1.822l0.003,-0.005l0.001,-0.027l0.286,-2.107l0.013,-0.023l0.012,-0.111l0.481,-2.109l0.279,-1.9l0.001,0l0.201,-1.412l0.002,-1.005l0,0l0,-0.011l0.006,-0.7l0,-0.002l0.007,-0.143l0.029,-0.283l0.322,-0.637l0.128,-0.309l0.036,-0.015l0.019,-0.037l1.053,-0.406l1.053,0.406z" fill="rgb(0%, 0%, 0%)"/>
    </g>
    <g id="svg_93" transform="matrix(1,0,0,1,233.0776,127.0042) ">
     <path id="svg_94" d="m-782.60092,-264.69638l1.892,0.857l0.133,0.116l0.133,0.044l1.598,1.212l0.102,0.206l0.193,0.1l0.952,1.342l0.055,0.171l0.072,0.046l0.755,1.606l0.076,0.336l0.048,0.092l0.209,1.742l0.01,0.163l0,0.001l0.008,1.749l0,0.006l-0.094,0.502l-0.687,1.764l-0.105,0.131l-0.047,0.151l-1.235,1.772l-0.081,0.043l-0.045,0.112l-1.724,1.844l-0.103,0.045l-0.044,0.092l-2.009,1.627l-0.061,0.022l-0.021,0.04l-2.088,1.474l-0.014,0.004l-0.004,0.008l-2.024,1.396l-0.041,0.013l-0.013,0.022l-1.748,1.108l-0.081,0.024l-0.064,0.058l-1.479,0.728l-0.023,0.006l-0.014,0.011l-0.926,0.432l-0.365,0.082l-0.088,0.044l-0.354,0.037l-0.138,0.007l-0.911,-0.377l-0.377,-0.91l0.377,-0.911l0.088,-0.036l0.035,-0.072l0.284,-0.22l0.094,-0.032l0.03,-0.054l0.872,-0.537l0.048,-0.014l0.013,-0.022l1.409,-0.784l1.684,-1.089l2.001,-1.38l0.001,0l0,-0.001l2.073,-1.439l1.936,-1.504l1.635,-1.654l1.122,-1.507l0.546,-1.332l0.006,-1.394l-0.172,-1.434l-0.619,-1.272l-0.791,-1.033l-1.329,-0.957l-1.476,-0.642l-1.584,0l-0.009,0l-1.484,-0.009l-2.528,1.515l-0.736,0.206l-1.003,-0.416l-0.416,-1.003l0.416,-1.003l0.185,-0.077l0.07,-0.126l2.849,-1.767l0.74,-0.213l0.019,-0.007l1.888,-0.011l0.009,0l1.888,0l0.601,0.13z" fill="rgb(0%, 0%, 0%)"/>
    </g>
   </g>
   <g id="svg_95" transform="matrix(0.9921,0,0,0.9921,940.40256189,298.76734344000005) ">
    <path id="svg_96" d="m-800.50592,-301.11438l0.363,0.072l0.939,0.567l0.055,0.154l0.088,0.05l1.128,1.89l0.01,0.037l0.027,0.028l1.634,3.009l0.005,0.02l0.013,0.014l2.075,3.984l0.004,0.017l0.01,0.011l2.124,4.206l0,0.001l2.107,3.977l0,0l1.891,3.419l0,0.001l1.615,2.874l1.26,2.121l0.9,1.125l0.491,0.356l0.262,0.056l0.482,0.018l0,0l0.025,0.001l0.605,-0.622l1.167,-1.672l1.473,-2.449l1.512,-2.7l0.926,-2.828l0.473,-3.11l0.13,-0.973l0.003,-0.296l0,0l0.018,-2.251l0,0l0,-0.003l0.016,-1.62l0,0l0.001,-0.044l0.029,-0.776l0.336,-0.752l0.147,-0.354l0.014,-0.006l0.007,-0.015l1.148,-0.463l1.148,0.463l0.007,0.015l0.015,0.006l0.152,0.367l0.331,0.742l0.028,0.77l0.001,0.048l0,0l0.017,1.618l0,0.004l0,0l0.018,2.252l0,0l0.022,2.463l0,0.002l0,0l0.02,2.533l0,0.002l0,0l0.016,2.111l0,0.005l0,0l0.004,0.699l0.656,-0.705l0.034,-0.015l0.015,-0.036l1.134,-1.119l0.09,-0.036l0.035,-0.076l1.018,-0.819l0.399,-0.456l0.051,-0.023l0.023,-0.056l1.173,-0.485l0.352,0l1.172,0.485l0.486,1.173l-0.007,0.017l0.004,0.531l0.016,1.546l0,0l0.024,1.967l0,0.009l0,0l0.015,2.041l0,0.014l-0.004,0.121l-0.126,1.768l0.003,1.042l0.089,0.004l2.04,0.038l2.309,-0.948l0,0l2.675,-1.185l2.851,-1.757l0.05,-0.014l0.014,-0.023l2.253,-1.234l1.594,-1.057l0,0l1.058,-0.71l0.302,-0.247l0.852,-0.306l0.947,0.392l0.392,0.948l-0.304,0.85l-0.567,0.691l-0.019,0.009l-0.009,0.024l-1.321,1.508l-1.23,1.545l-0.002,0.003l1.164,-0.436l2.387,-1.069l0.026,-0.005l0.004,-0.008l1.992,-0.847l0.036,-0.007l0.006,-0.01l1.117,-0.434l0.086,-0.207l0.036,-0.015l0.02,-0.038l0.941,-0.36l0.941,0.36l0.02,0.038l0.037,0.015l0.117,0.283l0.287,0.556l0.07,0.619l0.01,0.173l-0.232,0.796l-0.927,1.454l-0.031,0.018l-0.018,0.054l-1.21,1.668l-0.019,0.01l-0.01,0.029l-1.286,1.652l-0.021,0.028l1.029,-0.412l0.28,-0.055l0.47,-0.195l1.111,0.46l0.46,1.11l-0.239,0.832l-0.675,1.083l-0.169,0.093l-0.102,0.231l-1.868,1.722l0,0l-2.079,1.929l-0.055,0.022l-0.021,0.045l-1.844,1.519l0.111,0.268l-0.407,0.982l-0.369,0.153l-0.064,0.103l-0.395,0.198l-0.563,0.507l-0.271,0.104l-0.083,0.128l-1.236,0.564l-1.088,0.904l-0.088,0.032l-0.031,0.058l-0.56,0.377l-0.07,0.054l-0.07,0.094l-0.109,0.054l-0.056,0.135l-1.278,0.53l0,0l-1.279,-0.53l-0.53,-1.279l0.362,-1.085l0.215,-0.286l0.234,-0.116l0.116,-0.235l0.916,-0.694l0.002,-0.001l0,-0.001l1.576,-1.198l2.079,-1.889l0.068,-0.026l0.026,-0.054l2.523,-1.988l0.516,-0.451l-0.022,0.004l-0.326,0.128l-1.192,-0.468l-0.015,-0.032l-0.032,-0.013l-0.153,-0.369l-0.355,-0.737l-0.016,-0.204l-0.005,-0.141l0.425,-1.151l0.425,-0.495l0.022,-0.01l0.01,-0.025l0.985,-1.085l1.145,-1.355l0.012,-0.006l0.006,-0.015l0.645,-0.736l-1.221,0.677l-0.082,0.022l-0.056,0.046l-2.431,1.036l-0.044,0.009l-0.022,0.017l-2.218,0.837l-0.297,0.055l-0.068,0.035l-1.102,0.135l-0.042,0.002l-0.167,0.069l-1.218,-0.504l-0.504,-1.218l0,-0.352l0.071,-0.204l-2.402,1.28l-0.057,0.014l-0.038,0.033l-2.573,1.171l-0.611,0.134l-0.03,0.013l-2.371,0.044l-1.45,0.066l-0.081,0.001l-1.207,-0.5l-0.026,-0.062l-0.056,-0.025l-0.294,-0.338l-0.424,-1.134l0,-0.775l0,-0.005l0.005,-1.62l0,0l0.006,-0.136l0.145,-1.766l0.015,-1.977l0,-0.001l0,-0.007l0.006,-0.499l-0.197,0.2l-0.898,0.968l-0.14,0.061l-0.059,0.122l-0.83,0.645l-0.846,0.291l-0.155,0.068l-0.577,0.015l-0.148,0.013l-0.026,0.001l-0.002,0.001l-0.414,0.033l-0.143,0.006l-0.588,-0.101l-0.369,-0.131l-0.118,-0.089l-0.173,-0.047l-0.348,-0.349l-0.204,-0.155l-0.024,-0.073l-0.066,-0.067l-0.147,-0.252l-0.557,1.085l-0.019,0.021l-0.007,0.027l-1.448,2.562l-0.053,0.053l-0.018,0.06l-1.263,1.841l-0.091,0.048l-0.051,0.129l-1.18,1.285l-0.019,0.008l-0.009,0.021l-1.145,0.51l-0.77,0.027l-0.001,0l-0.628,0.023l-0.067,0.001l-0.252,-0.018l-0.788,-0.116l-0.271,-0.15l-0.472,-0.149l-0.995,-0.701l-0.113,-0.22l-0.242,-0.116l-1.124,-1.404l-0.035,-0.099l-0.107,-0.106l-1.332,-2.245l-0.008,-0.026l-0.019,-0.02l-1.613,-2.878l-0.003,-0.013l-0.009,-0.009l-1.891,-3.444l-0.006,-0.024l-0.015,-0.016l-2.097,-4.009l-0.007,-0.026l-0.015,-0.017l-2.091,-4.223l-0.001,-0.005l-0.002,-0.002l-1.405,-2.828l0.599,2.197l0.009,0.066l0.012,0.019l0.688,3.102l1.095,3.432l1.081,3.006l1.358,2.96l0.001,0.006l0.002,0.002l1.301,2.822l0.011,0.052l0.024,0.029l1.063,2.665l1.47,2.592l0.025,0.094l0.053,0.064l0.944,2.236l0.941,1.935l0.144,0.62l0,0.032l-0.034,1.48l-0.001,0l0,0.014l-0.037,1.058l-0.001,0.001l0,0.02l-0.03,0.565l-0.266,0.573l-0.113,0.272l-0.016,0.007l-0.008,0.017l-0.893,0.356l-0.188,-0.013l-0.638,-0.093l-0.475,-0.262l-0.235,-0.098l-0.018,-0.041l-0.044,-0.025l-0.312,-0.836l0.374,-0.902l0.189,-0.079l-0.018,-0.517l0,-0.019l0,0l-0.027,-1.156l-0.857,-1.666l-0.011,-0.044l-0.024,-0.028l-0.983,-2.17l-1.528,-2.583l-0.029,-0.108l-0.064,-0.078l-1.139,-2.7l-1.345,-2.747l-0.005,-0.019l-0.009,-0.011l-1.42,-3.01l-0.02,-0.088l-0.037,-0.049l-1.134,-3.083l-0.009,-0.051l-0.016,-0.021l-1.127,-3.508l-0.019,-0.114l-0.023,-0.037l-0.698,-3.134l-0.765,-2.758l-0.032,-0.231l-0.019,-0.038l-0.282,-2.666l-0.216,-1.73l-0.013,-0.197l-0.001,-0.002l-0.006,-1.332l-0.01,-0.858l-0.01,-0.079l-0.023,-0.062l0,0l0.483,-1.166l1.167,-0.483l0,0l0.323,0.032z" fill="rgb(0%, 0%, 0%)"/>
   </g>
  </g>
 </g>
</svg>